<svg width="760" height="401" viewBox="0 0 760 401" fill="none" xmlns="http://www.w3.org/2000/svg">
<g clip-path="url(#clip0_1_115)">
<path d="M760 0.5H0V400.5H760V0.5Z" fill="white"/>
<path d="M136.275 50.1286V48.5607H140.325V52.2678C139.931 52.6486 139.36 52.985 138.611 53.277C137.866 53.5648 137.111 53.7087 136.345 53.7087C135.371 53.7087 134.523 53.5056 133.799 53.0993C133.076 52.6888 132.532 52.1048 132.168 51.3474C131.804 50.5856 131.622 49.7583 131.622 48.8654C131.622 47.8963 131.825 47.0352 132.231 46.2819C132.638 45.5287 133.232 44.951 134.015 44.549C134.612 44.2401 135.354 44.0856 136.243 44.0856C137.398 44.0856 138.3 44.329 138.947 44.8156C139.599 45.298 140.018 45.9667 140.204 46.8215L138.338 47.1706C138.207 46.7136 137.959 46.3539 137.595 46.0915C137.236 45.8249 136.785 45.6916 136.243 45.6916C135.422 45.6916 134.768 45.9518 134.282 46.4724C133.799 46.9929 133.558 47.7652 133.558 48.7892C133.558 49.8937 133.804 50.7232 134.294 51.2775C134.785 51.8277 135.429 52.1027 136.224 52.1027C136.618 52.1027 137.011 52.0266 137.405 51.8742C137.803 51.7176 138.143 51.5293 138.427 51.3093V50.1286H136.275ZM145.955 51.4045L147.732 51.7028C147.504 52.3545 147.142 52.8517 146.647 53.1945C146.156 53.5331 145.54 53.7023 144.8 53.7023C143.628 53.7023 142.76 53.3194 142.197 52.5534C141.753 51.9398 141.531 51.1654 141.531 50.2302C141.531 49.113 141.823 48.2391 142.407 47.6086C142.991 46.9738 143.729 46.6564 144.622 46.6564C145.625 46.6564 146.416 46.9886 146.996 47.653C147.576 48.3132 147.853 49.3267 147.828 50.6935H143.359C143.372 51.2225 143.515 51.6351 143.791 51.9313C144.066 52.2233 144.408 52.3693 144.819 52.3693C145.098 52.3693 145.333 52.2932 145.523 52.1408C145.714 51.9885 145.858 51.743 145.955 51.4045ZM146.057 49.6017C146.044 49.0855 145.911 48.694 145.657 48.4274C145.403 48.1566 145.094 48.0212 144.73 48.0212C144.341 48.0212 144.019 48.1629 143.765 48.4465C143.511 48.73 143.386 49.1151 143.391 49.6017H146.057ZM155.419 53.55H153.636V50.1096C153.636 49.3817 153.598 48.912 153.521 48.7004C153.445 48.4846 153.32 48.3174 153.147 48.1989C152.978 48.0804 152.772 48.0212 152.531 48.0212C152.222 48.0212 151.945 48.1058 151.7 48.2751C151.454 48.4444 151.285 48.6686 151.192 48.9479C151.103 49.2272 151.059 49.7435 151.059 50.4968V53.55H149.275V46.8088H150.932V47.799C151.52 47.0373 152.26 46.6564 153.153 46.6564C153.547 46.6564 153.907 46.7284 154.232 46.8723C154.558 47.0119 154.804 47.1918 154.969 47.4118C155.138 47.6319 155.254 47.8815 155.318 48.1608C155.386 48.4401 155.419 48.84 155.419 49.3605V53.55ZM163.367 53.55H161.583V50.1096C161.583 49.3817 161.545 48.912 161.469 48.7004C161.393 48.4846 161.268 48.3174 161.094 48.1989C160.925 48.0804 160.72 48.0212 160.479 48.0212C160.17 48.0212 159.892 48.1058 159.647 48.2751C159.402 48.4444 159.232 48.6686 159.139 48.9479C159.05 49.2272 159.006 49.7435 159.006 50.4968V53.55H157.222V46.8088H158.879V47.799C159.467 47.0373 160.208 46.6564 161.101 46.6564C161.494 46.6564 161.854 46.7284 162.18 46.8723C162.506 47.0119 162.751 47.1918 162.916 47.4118C163.085 47.6319 163.202 47.8815 163.265 48.1608C163.333 48.4401 163.367 48.84 163.367 49.3605V53.55ZM169.086 51.4045L170.863 51.7028C170.635 52.3545 170.273 52.8517 169.778 53.1945C169.287 53.5331 168.671 53.7023 167.931 53.7023C166.758 53.7023 165.891 53.3194 165.328 52.5534C164.884 51.9398 164.662 51.1654 164.662 50.2302C164.662 49.113 164.954 48.2391 165.538 47.6086C166.122 46.9738 166.86 46.6564 167.753 46.6564C168.756 46.6564 169.547 46.9886 170.127 47.653C170.707 48.3132 170.984 49.3267 170.958 50.6935H166.49C166.502 51.2225 166.646 51.6351 166.921 51.9313C167.196 52.2233 167.539 52.3693 167.95 52.3693C168.229 52.3693 168.464 52.2932 168.654 52.1408C168.845 51.9885 168.989 51.743 169.086 51.4045ZM169.188 49.6017C169.175 49.0855 169.042 48.694 168.788 48.4274C168.534 48.1566 168.225 48.0212 167.861 48.0212C167.472 48.0212 167.15 48.1629 166.896 48.4465C166.642 48.73 166.517 49.1151 166.521 49.6017H169.188ZM172.285 46.8088H173.929V47.7292C174.517 47.014 175.218 46.6564 176.03 46.6564C176.462 46.6564 176.836 46.7453 177.154 46.923C177.471 47.1008 177.731 47.3695 177.935 47.7292C178.231 47.3695 178.55 47.1008 178.893 46.923C179.236 46.7453 179.602 46.6564 179.991 46.6564C180.486 46.6564 180.905 46.758 181.248 46.9611C181.591 47.16 181.847 47.4541 182.016 47.8434C182.139 48.1312 182.2 48.5967 182.2 49.2399V53.55H180.417V49.697C180.417 49.0283 180.355 48.5967 180.232 48.402C180.067 48.1481 179.813 48.0212 179.471 48.0212C179.221 48.0212 178.986 48.0974 178.766 48.2497C178.546 48.402 178.387 48.6263 178.29 48.9225C178.193 49.2145 178.144 49.6779 178.144 50.3127V53.55H176.36V49.8557C176.36 49.1997 176.329 48.7766 176.265 48.5861C176.202 48.3957 176.102 48.2539 175.967 48.1608C175.836 48.0677 175.656 48.0212 175.427 48.0212C175.152 48.0212 174.905 48.0952 174.685 48.2433C174.465 48.3915 174.306 48.6052 174.208 48.8845C174.115 49.1638 174.069 49.6271 174.069 50.2746V53.55H172.285V46.8088ZM183.355 51.6266L185.146 51.3537C185.222 51.7007 185.376 51.9652 185.609 52.1472C185.842 52.3249 186.167 52.4138 186.586 52.4138C187.048 52.4138 187.395 52.3291 187.627 52.1599C187.784 52.0414 187.862 51.8827 187.862 51.6838C187.862 51.5484 187.82 51.4362 187.735 51.3474C187.646 51.2627 187.448 51.1844 187.139 51.1125C185.7 50.7951 184.788 50.5052 184.403 50.2429C183.87 49.8789 183.603 49.3732 183.603 48.7258C183.603 48.1418 183.834 47.6509 184.295 47.2531C184.756 46.8553 185.471 46.6564 186.44 46.6564C187.363 46.6564 188.049 46.8067 188.497 47.1071C188.946 47.4076 189.255 47.8519 189.424 48.4401L187.742 48.7512C187.67 48.4888 187.532 48.2878 187.329 48.1481C187.13 48.0085 186.845 47.9387 186.472 47.9387C186.002 47.9387 185.666 48.0043 185.463 48.1354C185.327 48.2285 185.26 48.3491 185.26 48.4973C185.26 48.6242 185.319 48.7321 185.438 48.821C185.598 48.9395 186.153 49.1066 187.101 49.3224C188.053 49.5383 188.717 49.8028 189.094 50.1159C189.466 50.4333 189.652 50.8755 189.652 51.4426C189.652 52.0604 189.394 52.5915 188.878 53.0358C188.362 53.4802 187.598 53.7023 186.586 53.7023C185.668 53.7023 184.94 53.5161 184.403 53.1437C183.87 52.7713 183.521 52.2656 183.355 51.6266ZM197.352 53.55H195.568V50.1096C195.568 49.3817 195.53 48.912 195.454 48.7004C195.378 48.4846 195.253 48.3174 195.08 48.1989C194.91 48.0804 194.705 48.0212 194.464 48.0212C194.155 48.0212 193.878 48.1058 193.632 48.2751C193.387 48.4444 193.218 48.6686 193.125 48.9479C193.036 49.2272 192.991 49.7435 192.991 50.4968V53.55H191.208V46.8088H192.864V47.799C193.452 47.0373 194.193 46.6564 195.086 46.6564C195.479 46.6564 195.839 46.7284 196.165 46.8723C196.491 47.0119 196.736 47.1918 196.901 47.4118C197.071 47.6319 197.187 47.8815 197.25 48.1608C197.318 48.4401 197.352 48.84 197.352 49.3605V53.55ZM199.167 45.8947V44.2443H200.951V45.8947H199.167ZM199.167 53.55V46.8088H200.951V53.55H199.167ZM205.877 46.8088V48.2307H204.658V50.9474C204.658 51.4976 204.669 51.8192 204.69 51.9123C204.715 52.0012 204.768 52.0752 204.849 52.1345C204.933 52.1937 205.035 52.2233 205.153 52.2233C205.318 52.2233 205.557 52.1662 205.871 52.0519L206.023 53.4357C205.608 53.6135 205.139 53.7023 204.614 53.7023C204.292 53.7023 204.002 53.6494 203.744 53.5436C203.486 53.4336 203.296 53.294 203.173 53.1247C203.054 52.9512 202.972 52.7184 202.925 52.4265C202.887 52.2191 202.868 51.8002 202.868 51.1696V48.2307H202.049V46.8088H202.868V45.4694L204.658 44.4284V46.8088H205.877ZM206.486 51.6266L208.276 51.3537C208.353 51.7007 208.507 51.9652 208.74 52.1472C208.972 52.3249 209.298 52.4138 209.717 52.4138C210.179 52.4138 210.526 52.3291 210.758 52.1599C210.915 52.0414 210.993 51.8827 210.993 51.6838C210.993 51.5484 210.951 51.4362 210.866 51.3474C210.777 51.2627 210.578 51.1844 210.27 51.1125C208.831 50.7951 207.919 50.5052 207.534 50.2429C207 49.8789 206.734 49.3732 206.734 48.7258C206.734 48.1418 206.965 47.6509 207.426 47.2531C207.887 46.8553 208.602 46.6564 209.571 46.6564C210.494 46.6564 211.179 46.8067 211.628 47.1071C212.076 47.4076 212.385 47.8519 212.555 48.4401L210.873 48.7512C210.801 48.4888 210.663 48.2878 210.46 48.1481C210.261 48.0085 209.975 47.9387 209.603 47.9387C209.133 47.9387 208.797 48.0043 208.594 48.1354C208.458 48.2285 208.391 48.3491 208.391 48.4973C208.391 48.6242 208.45 48.7321 208.568 48.821C208.729 48.9395 209.284 49.1066 210.231 49.3224C211.184 49.5383 211.848 49.8028 212.225 50.1159C212.597 50.4333 212.783 50.8755 212.783 51.4426C212.783 52.0604 212.525 52.5915 212.009 53.0358C211.493 53.4802 210.729 53.7023 209.717 53.7023C208.799 53.7023 208.071 53.5161 207.534 53.1437C207 52.7713 206.651 52.2656 206.486 51.6266ZM215.684 48.8654L214.065 48.5734C214.247 47.9217 214.561 47.4393 215.005 47.1262C215.449 46.813 216.109 46.6564 216.985 46.6564C217.781 46.6564 218.373 46.7516 218.763 46.9421C219.152 47.1283 219.425 47.3674 219.582 47.6594C219.742 47.9471 219.823 48.4782 219.823 49.2526L219.804 51.3347C219.804 51.9271 219.831 52.3651 219.886 52.6486C219.945 52.9279 220.053 53.2284 220.21 53.55H218.445C218.399 53.4315 218.342 53.2559 218.274 53.0231C218.244 52.9173 218.223 52.8475 218.21 52.8137C217.906 53.1099 217.58 53.3321 217.233 53.4802C216.886 53.6283 216.516 53.7023 216.122 53.7023C215.428 53.7023 214.88 53.514 214.478 53.1374C214.08 52.7608 213.881 52.2847 213.881 51.7092C213.881 51.3283 213.972 50.9898 214.154 50.6935C214.336 50.3931 214.59 50.1646 214.916 50.008C215.246 49.8472 215.72 49.7075 216.338 49.5891C217.172 49.4325 217.749 49.2865 218.071 49.1511V48.9733C218.071 48.6306 217.986 48.3872 217.817 48.2433C217.648 48.0952 217.328 48.0212 216.858 48.0212C216.541 48.0212 216.293 48.0847 216.116 48.2116C215.938 48.3343 215.794 48.5523 215.684 48.8654ZM218.071 50.3127C217.842 50.3889 217.48 50.4798 216.985 50.5856C216.49 50.6914 216.167 50.7951 216.014 50.8967C215.781 51.0617 215.665 51.2712 215.665 51.5251C215.665 51.7748 215.758 51.9906 215.944 52.1725C216.131 52.3545 216.368 52.4455 216.655 52.4455C216.977 52.4455 217.284 52.3397 217.576 52.1281C217.792 51.9673 217.933 51.7705 218.001 51.5378C218.048 51.3854 218.071 51.0956 218.071 50.6682V50.3127ZM221.587 53.55V44.2443H223.371V53.55H221.587ZM231.388 53.55H229.731V52.5598C229.456 52.9448 229.131 53.2326 228.754 53.423C228.382 53.6092 228.005 53.7023 227.624 53.7023C226.85 53.7023 226.185 53.3913 225.631 52.7692C225.081 52.1429 224.806 51.2712 224.806 50.154C224.806 49.0114 225.074 48.1439 225.612 47.5515C226.149 46.9548 226.828 46.6564 227.649 46.6564C228.403 46.6564 229.054 46.9696 229.604 47.5959V44.2443H231.388V53.55ZM226.627 50.0334C226.627 50.7528 226.727 51.2733 226.926 51.5949C227.214 52.0604 227.616 52.2932 228.132 52.2932C228.542 52.2932 228.891 52.1196 229.179 51.7726C229.467 51.4214 229.611 50.8988 229.611 50.2048C229.611 49.4304 229.471 48.8739 229.192 48.5353C228.913 48.1926 228.555 48.0212 228.119 48.0212C227.696 48.0212 227.34 48.1905 227.053 48.529C226.769 48.8633 226.627 49.3648 226.627 50.0334ZM237.057 51.4045L238.834 51.7028C238.605 52.3545 238.244 52.8517 237.749 53.1945C237.258 53.5331 236.642 53.7023 235.901 53.7023C234.729 53.7023 233.862 53.3194 233.299 52.5534C232.854 51.9398 232.632 51.1654 232.632 50.2302C232.632 49.113 232.924 48.2391 233.508 47.6086C234.092 46.9738 234.831 46.6564 235.724 46.6564C236.727 46.6564 237.518 46.9886 238.098 47.653C238.677 48.3132 238.955 49.3267 238.929 50.6935H234.46C234.473 51.2225 234.617 51.6351 234.892 51.9313C235.167 52.2233 235.51 52.3693 235.92 52.3693C236.2 52.3693 236.435 52.2932 236.625 52.1408C236.815 51.9885 236.959 51.743 237.057 51.4045ZM237.158 49.6017C237.146 49.0855 237.012 48.694 236.758 48.4274C236.504 48.1566 236.195 48.0212 235.832 48.0212C235.442 48.0212 235.121 48.1629 234.867 48.4465C234.613 48.73 234.488 49.1151 234.492 49.6017H237.158ZM242.097 53.55H240.313V46.8088H241.97V47.7673C242.253 47.3145 242.507 47.0161 242.731 46.8723C242.96 46.7284 243.218 46.6564 243.506 46.6564C243.912 46.6564 244.304 46.7686 244.68 46.9929L244.128 48.548C243.827 48.3534 243.548 48.256 243.29 48.256C243.04 48.256 242.829 48.3259 242.655 48.4655C242.482 48.6009 242.344 48.8485 242.243 49.2082C242.145 49.5679 242.097 50.3211 242.097 51.468V53.55ZM249.358 51.4045L251.136 51.7028C250.907 52.3545 250.545 52.8517 250.05 53.1945C249.559 53.5331 248.944 53.7023 248.203 53.7023C247.031 53.7023 246.163 53.3194 245.601 52.5534C245.156 51.9398 244.934 51.1654 244.934 50.2302C244.934 49.113 245.226 48.2391 245.81 47.6086C246.394 46.9738 247.132 46.6564 248.025 46.6564C249.028 46.6564 249.82 46.9886 250.399 47.653C250.979 48.3132 251.256 49.3267 251.231 50.6935H246.762C246.775 51.2225 246.919 51.6351 247.194 51.9313C247.469 52.2233 247.812 52.3693 248.222 52.3693C248.501 52.3693 248.736 52.2932 248.927 52.1408C249.117 51.9885 249.261 51.743 249.358 51.4045ZM249.46 49.6017C249.447 49.0855 249.314 48.694 249.06 48.4274C248.806 48.1566 248.497 48.0212 248.133 48.0212C247.744 48.0212 247.422 48.1629 247.168 48.4465C246.915 48.73 246.79 49.1151 246.794 49.6017H249.46ZM258.823 53.55H257.039V50.1096C257.039 49.3817 257.001 48.912 256.925 48.7004C256.849 48.4846 256.724 48.3174 256.55 48.1989C256.381 48.0804 256.176 48.0212 255.935 48.0212C255.626 48.0212 255.348 48.1058 255.103 48.2751C254.858 48.4444 254.688 48.6686 254.595 48.9479C254.506 49.2272 254.462 49.7435 254.462 50.4968V53.55H252.678V46.8088H254.335V47.799C254.923 47.0373 255.664 46.6564 256.557 46.6564C256.95 46.6564 257.31 46.7284 257.636 46.8723C257.962 47.0119 258.207 47.1918 258.372 47.4118C258.541 47.6319 258.658 47.8815 258.721 48.1608C258.789 48.4401 258.823 48.84 258.823 49.3605V53.55ZM263.476 46.8088H264.466V46.301C264.466 45.7339 264.525 45.3107 264.644 45.0314C264.766 44.7521 264.988 44.5257 265.31 44.3522C265.636 44.1745 266.046 44.0856 266.542 44.0856C267.049 44.0856 267.547 44.1618 268.033 44.3141L267.792 45.5583C267.508 45.4906 267.236 45.4567 266.973 45.4567C266.715 45.4567 266.529 45.5181 266.415 45.6408C266.305 45.7593 266.25 45.9899 266.25 46.3327V46.8088H267.583V48.2116H266.25V53.55H264.466V48.2116H263.476V46.8088ZM268.173 50.0842C268.173 49.4917 268.319 48.9183 268.611 48.364C268.903 47.8096 269.315 47.3864 269.849 47.0944C270.386 46.8024 270.985 46.6564 271.645 46.6564C272.665 46.6564 273.501 46.9886 274.152 47.653C274.804 48.3132 275.13 49.1489 275.13 50.1603C275.13 51.1802 274.8 52.0266 274.14 52.6994C273.484 53.368 272.656 53.7023 271.658 53.7023C271.04 53.7023 270.45 53.5627 269.887 53.2834C269.328 53.0041 268.903 52.5957 268.611 52.0583C268.319 51.5166 268.173 50.8586 268.173 50.0842ZM270.001 50.1794C270.001 50.848 270.16 51.36 270.477 51.7155C270.794 52.071 271.186 52.2487 271.651 52.2487C272.117 52.2487 272.506 52.071 272.819 51.7155C273.137 51.36 273.295 50.8438 273.295 50.1667C273.295 49.5065 273.137 48.9987 272.819 48.6432C272.506 48.2878 272.117 48.11 271.651 48.11C271.186 48.11 270.794 48.2878 270.477 48.6432C270.16 48.9987 270.001 49.5108 270.001 50.1794ZM278.24 53.55H276.457V46.8088H278.113V47.7673C278.397 47.3145 278.651 47.0161 278.875 46.8723C279.104 46.7284 279.362 46.6564 279.649 46.6564C280.056 46.6564 280.447 46.7686 280.824 46.9929L280.271 48.548C279.971 48.3534 279.692 48.256 279.434 48.256C279.184 48.256 278.972 48.3259 278.799 48.4655C278.625 48.6009 278.488 48.8485 278.386 49.2082C278.289 49.5679 278.24 50.3211 278.24 51.468V53.55ZM284.436 46.8088H285.426V46.301C285.426 45.7339 285.485 45.3107 285.604 45.0314C285.726 44.7521 285.948 44.5257 286.27 44.3522C286.596 44.1745 287.006 44.0856 287.501 44.0856C288.009 44.0856 288.507 44.1618 288.993 44.3141L288.752 45.5583C288.468 45.4906 288.195 45.4567 287.933 45.4567C287.675 45.4567 287.489 45.5181 287.375 45.6408C287.264 45.7593 287.209 45.9899 287.209 46.3327V46.8088H288.542V48.2116H287.209V53.55H285.426V48.2116H284.436V46.8088ZM294.617 47.2087L295.277 46.447L295.988 47.0309L295.303 47.8181C295.557 48.1185 295.756 48.4761 295.899 48.8908C296.048 49.3013 296.122 49.7329 296.122 50.1857C296.122 51.1929 295.789 52.0308 295.125 52.6994C294.461 53.368 293.627 53.7023 292.624 53.7023C291.896 53.7023 291.247 53.5246 290.675 53.1691L289.945 54.0134L289.247 53.4103L289.983 52.5598C289.729 52.2508 289.528 51.8827 289.38 51.4553C289.236 51.0279 289.165 50.5899 289.165 50.1413C289.165 49.1257 289.488 48.292 290.136 47.6403C290.787 46.9844 291.621 46.6564 292.637 46.6564C293.39 46.6564 294.05 46.8405 294.617 47.2087ZM293.614 48.364C293.331 48.1354 293.009 48.0212 292.649 48.0212C292.171 48.0212 291.765 48.2053 291.431 48.5734C291.101 48.9416 290.936 49.4579 290.936 50.1223C290.936 50.5412 290.995 50.9178 291.113 51.2521L293.614 48.364ZM294.16 49.1384L291.672 52.0139C291.951 52.217 292.271 52.3185 292.63 52.3185C293.117 52.3185 293.525 52.1366 293.855 51.7726C294.186 51.4045 294.351 50.8903 294.351 50.2302C294.351 49.8324 294.287 49.4684 294.16 49.1384ZM299.2 53.55H297.417V46.8088H299.073V47.7673C299.357 47.3145 299.611 47.0161 299.835 46.8723C300.063 46.7284 300.322 46.6564 300.609 46.6564C301.016 46.6564 301.407 46.7686 301.784 46.9929L301.231 48.548C300.931 48.3534 300.652 48.256 300.394 48.256C300.144 48.256 299.932 48.3259 299.759 48.4655C299.585 48.6009 299.448 48.8485 299.346 49.2082C299.249 49.5679 299.2 50.3211 299.2 51.468V53.55ZM301.93 51.6266L303.72 51.3537C303.796 51.7007 303.95 51.9652 304.183 52.1472C304.416 52.3249 304.742 52.4138 305.161 52.4138C305.622 52.4138 305.969 52.3291 306.202 52.1599C306.358 52.0414 306.437 51.8827 306.437 51.6838C306.437 51.5484 306.394 51.4362 306.31 51.3474C306.221 51.2627 306.022 51.1844 305.713 51.1125C304.274 50.7951 303.362 50.5052 302.977 50.2429C302.444 49.8789 302.177 49.3732 302.177 48.7258C302.177 48.1418 302.408 47.6509 302.869 47.2531C303.33 46.8553 304.046 46.6564 305.015 46.6564C305.937 46.6564 306.623 46.8067 307.071 47.1071C307.52 47.4076 307.829 47.8519 307.998 48.4401L306.316 48.7512C306.244 48.4888 306.106 48.2878 305.903 48.1481C305.704 48.0085 305.419 47.9387 305.046 47.9387C304.577 47.9387 304.24 48.0043 304.037 48.1354C303.902 48.2285 303.834 48.3491 303.834 48.4973C303.834 48.6242 303.893 48.7321 304.012 48.821C304.173 48.9395 304.727 49.1066 305.675 49.3224C306.627 49.5383 307.291 49.8028 307.668 50.1159C308.04 50.4333 308.227 50.8755 308.227 51.4426C308.227 52.0604 307.968 52.5915 307.452 53.0358C306.936 53.4802 306.172 53.7023 305.161 53.7023C304.242 53.7023 303.514 53.5161 302.977 53.1437C302.444 52.7713 302.095 52.2656 301.93 51.6266ZM312.886 46.8088V48.2307H311.667V50.9474C311.667 51.4976 311.678 51.8192 311.699 51.9123C311.724 52.0012 311.777 52.0752 311.857 52.1345C311.942 52.1937 312.044 52.2233 312.162 52.2233C312.327 52.2233 312.566 52.1662 312.879 52.0519L313.032 53.4357C312.617 53.6135 312.147 53.7023 311.623 53.7023C311.301 53.7023 311.011 53.6494 310.753 53.5436C310.495 53.4336 310.304 53.294 310.182 53.1247C310.063 52.9512 309.981 52.7184 309.934 52.4265C309.896 52.2191 309.877 51.8002 309.877 51.1696V48.2307H309.058V46.8088H309.877V45.4694L311.667 44.4284V46.8088H312.886ZM318.027 51.4045L319.805 51.7028C319.576 52.3545 319.214 52.8517 318.719 53.1945C318.228 53.5331 317.613 53.7023 316.872 53.7023C315.7 53.7023 314.832 53.3194 314.27 52.5534C313.825 51.9398 313.603 51.1654 313.603 50.2302C313.603 49.113 313.895 48.2391 314.479 47.6086C315.063 46.9738 315.801 46.6564 316.694 46.6564C317.697 46.6564 318.489 46.9886 319.068 47.653C319.648 48.3132 319.925 49.3267 319.9 50.6935H315.431C315.444 51.2225 315.588 51.6351 315.863 51.9313C316.138 52.2233 316.481 52.3693 316.891 52.3693C317.17 52.3693 317.405 52.2932 317.596 52.1408C317.786 51.9885 317.93 51.743 318.027 51.4045ZM318.129 49.6017C318.116 49.0855 317.983 48.694 317.729 48.4274C317.475 48.1566 317.166 48.0212 316.802 48.0212C316.413 48.0212 316.091 48.1629 315.837 48.4465C315.583 48.73 315.459 49.1151 315.463 49.6017H318.129ZM321.195 53.9943L323.232 54.2419C323.266 54.4789 323.345 54.6418 323.467 54.7307C323.637 54.8576 323.903 54.9211 324.267 54.9211C324.733 54.9211 325.082 54.8513 325.314 54.7116C325.471 54.6185 325.59 54.4683 325.67 54.2609C325.725 54.1128 325.752 53.8399 325.752 53.4421V52.4582C325.219 53.1861 324.546 53.55 323.734 53.55C322.828 53.55 322.111 53.167 321.582 52.4011C321.167 51.7959 320.96 51.0427 320.96 50.1413C320.96 49.0114 321.231 48.1481 321.772 47.5515C322.318 46.9548 322.995 46.6564 323.804 46.6564C324.637 46.6564 325.325 47.0225 325.867 47.7546V46.8088H327.536V52.8581C327.536 53.6537 327.471 54.2482 327.339 54.6418C327.208 55.0353 327.024 55.3443 326.787 55.5685C326.55 55.7928 326.233 55.9684 325.835 56.0954C325.441 56.2224 324.942 56.2858 324.337 56.2858C323.194 56.2858 322.384 56.0891 321.906 55.6955C321.428 55.3062 321.188 54.8111 321.188 54.2101C321.188 54.1509 321.191 54.079 321.195 53.9943ZM322.788 50.0397C322.788 50.7549 322.926 51.2796 323.201 51.614C323.48 51.944 323.823 52.1091 324.229 52.1091C324.665 52.1091 325.033 51.9398 325.333 51.6013C325.634 51.2585 325.784 50.7528 325.784 50.0842C325.784 49.3859 325.64 48.8675 325.353 48.529C325.065 48.1905 324.701 48.0212 324.261 48.0212C323.833 48.0212 323.48 48.1883 323.201 48.5226C322.926 48.8527 322.788 49.3584 322.788 50.0397ZM330.64 48.8654L329.021 48.5734C329.203 47.9217 329.517 47.4393 329.961 47.1262C330.405 46.813 331.065 46.6564 331.941 46.6564C332.737 46.6564 333.329 46.7516 333.719 46.9421C334.108 47.1283 334.381 47.3674 334.538 47.6594C334.698 47.9471 334.779 48.4782 334.779 49.2526L334.76 51.3347C334.76 51.9271 334.787 52.3651 334.842 52.6486C334.902 52.9279 335.009 53.2284 335.166 53.55H333.401C333.355 53.4315 333.298 53.2559 333.23 53.0231C333.2 52.9173 333.179 52.8475 333.167 52.8137C332.862 53.1099 332.536 53.3321 332.189 53.4802C331.842 53.6283 331.472 53.7023 331.078 53.7023C330.384 53.7023 329.836 53.514 329.434 53.1374C329.036 52.7608 328.837 52.2847 328.837 51.7092C328.837 51.3283 328.928 50.9898 329.11 50.6935C329.292 50.3931 329.546 50.1646 329.872 50.008C330.202 49.8472 330.676 49.7075 331.294 49.5891C332.128 49.4325 332.705 49.2865 333.027 49.1511V48.9733C333.027 48.6306 332.942 48.3872 332.773 48.2433C332.604 48.0952 332.284 48.0212 331.814 48.0212C331.497 48.0212 331.25 48.0847 331.072 48.2116C330.894 48.3343 330.75 48.5523 330.64 48.8654ZM333.027 50.3127C332.798 50.3889 332.437 50.4798 331.941 50.5856C331.446 50.6914 331.123 50.7951 330.97 50.8967C330.737 51.0617 330.621 51.2712 330.621 51.5251C330.621 51.7748 330.714 51.9906 330.9 52.1725C331.087 52.3545 331.324 52.4455 331.611 52.4455C331.933 52.4455 332.24 52.3397 332.532 52.1281C332.748 51.9673 332.889 51.7705 332.957 51.5378C333.004 51.3854 333.027 51.0956 333.027 50.6682V50.3127ZM342.675 53.55H340.892V50.1096C340.892 49.3817 340.854 48.912 340.777 48.7004C340.701 48.4846 340.576 48.3174 340.403 48.1989C340.234 48.0804 340.028 48.0212 339.787 48.0212C339.478 48.0212 339.201 48.1058 338.956 48.2751C338.71 48.4444 338.541 48.6686 338.448 48.9479C338.359 49.2272 338.314 49.7435 338.314 50.4968V53.55H336.531V46.8088H338.188V47.799C338.776 47.0373 339.516 46.6564 340.409 46.6564C340.803 46.6564 341.162 46.7284 341.488 46.8723C341.814 47.0119 342.06 47.1918 342.225 47.4118C342.394 47.6319 342.51 47.8815 342.574 48.1608C342.641 48.4401 342.675 48.84 342.675 49.3605V53.55ZM344.326 53.9943L346.363 54.2419C346.397 54.4789 346.475 54.6418 346.598 54.7307C346.767 54.8576 347.034 54.9211 347.398 54.9211C347.863 54.9211 348.213 54.8513 348.445 54.7116C348.602 54.6185 348.72 54.4683 348.801 54.2609C348.856 54.1128 348.883 53.8399 348.883 53.4421V52.4582C348.35 53.1861 347.677 53.55 346.865 53.55C345.959 53.55 345.242 53.167 344.713 52.4011C344.298 51.7959 344.091 51.0427 344.091 50.1413C344.091 49.0114 344.362 48.1481 344.903 47.5515C345.449 46.9548 346.126 46.6564 346.935 46.6564C347.768 46.6564 348.456 47.0225 348.998 47.7546V46.8088H350.667V52.8581C350.667 53.6537 350.601 54.2482 350.47 54.6418C350.339 55.0353 350.155 55.3443 349.918 55.5685C349.681 55.7928 349.364 55.9684 348.966 56.0954C348.572 56.2224 348.073 56.2858 347.468 56.2858C346.325 56.2858 345.515 56.0891 345.037 55.6955C344.558 55.3062 344.319 54.8111 344.319 54.2101C344.319 54.1509 344.321 54.079 344.326 53.9943ZM345.919 50.0397C345.919 50.7549 346.056 51.2796 346.332 51.614C346.611 51.944 346.954 52.1091 347.36 52.1091C347.796 52.1091 348.164 51.9398 348.464 51.6013C348.765 51.2585 348.915 50.7528 348.915 50.0842C348.915 49.3859 348.771 48.8675 348.483 48.529C348.196 48.1905 347.832 48.0212 347.392 48.0212C346.964 48.0212 346.611 48.1883 346.332 48.5226C346.056 48.8527 345.919 49.3584 345.919 50.0397ZM351.81 51.6266L353.6 51.3537C353.676 51.7007 353.83 51.9652 354.063 52.1472C354.296 52.3249 354.622 52.4138 355.041 52.4138C355.502 52.4138 355.849 52.3291 356.082 52.1599C356.238 52.0414 356.316 51.8827 356.316 51.6838C356.316 51.5484 356.274 51.4362 356.189 51.3474C356.101 51.2627 355.902 51.1844 355.593 51.1125C354.154 50.7951 353.242 50.5052 352.857 50.2429C352.324 49.8789 352.057 49.3732 352.057 48.7258C352.057 48.1418 352.288 47.6509 352.749 47.2531C353.21 46.8553 353.925 46.6564 354.895 46.6564C355.817 46.6564 356.503 46.8067 356.951 47.1071C357.4 47.4076 357.709 47.8519 357.878 48.4401L356.196 48.7512C356.124 48.4888 355.986 48.2878 355.783 48.1481C355.584 48.0085 355.299 47.9387 354.926 47.9387C354.457 47.9387 354.12 48.0043 353.917 48.1354C353.782 48.2285 353.714 48.3491 353.714 48.4973C353.714 48.6242 353.773 48.7321 353.892 48.821C354.052 48.9395 354.607 49.1066 355.555 49.3224C356.507 49.5383 357.171 49.8028 357.548 50.1159C357.92 50.4333 358.106 50.8755 358.106 51.4426C358.106 52.0604 357.848 52.5915 357.332 53.0358C356.816 53.4802 356.052 53.7023 355.041 53.7023C354.122 53.7023 353.394 53.5161 352.857 53.1437C352.324 52.7713 351.975 52.2656 351.81 51.6266ZM358.894 46.8088H359.884V46.301C359.884 45.7339 359.943 45.3107 360.062 45.0314C360.184 44.7521 360.406 44.5257 360.728 44.3522C361.054 44.1745 361.464 44.0856 361.959 44.0856C362.467 44.0856 362.965 44.1618 363.451 44.3141L363.21 45.5583C362.926 45.4906 362.653 45.4567 362.391 45.4567C362.133 45.4567 361.947 45.5181 361.833 45.6408C361.722 45.7593 361.667 45.9899 361.667 46.3327V46.8088H363V48.2116H361.667V53.55H359.884V48.2116H358.894V46.8088ZM363.591 50.0842C363.591 49.4917 363.737 48.9183 364.029 48.364C364.321 47.8096 364.733 47.3864 365.267 47.0944C365.804 46.8024 366.403 46.6564 367.063 46.6564C368.083 46.6564 368.919 46.9886 369.57 47.653C370.222 48.3132 370.548 49.1489 370.548 50.1603C370.548 51.1802 370.218 52.0266 369.558 52.6994C368.902 53.368 368.074 53.7023 367.076 53.7023C366.458 53.7023 365.868 53.5627 365.305 53.2834C364.746 53.0041 364.321 52.5957 364.029 52.0583C363.737 51.5166 363.591 50.8586 363.591 50.0842ZM365.419 50.1794C365.419 50.848 365.578 51.36 365.895 51.7155C366.212 52.071 366.604 52.2487 367.069 52.2487C367.535 52.2487 367.924 52.071 368.237 51.7155C368.555 51.36 368.713 50.8438 368.713 50.1667C368.713 49.5065 368.555 48.9987 368.237 48.6432C367.924 48.2878 367.535 48.11 367.069 48.11C366.604 48.11 366.212 48.2878 365.895 48.6432C365.578 48.9987 365.419 49.5108 365.419 50.1794ZM373.658 53.55H371.875V46.8088H373.531V47.7673C373.815 47.3145 374.069 47.0161 374.293 46.8723C374.521 46.7284 374.78 46.6564 375.067 46.6564C375.474 46.6564 375.865 46.7686 376.242 46.9929L375.689 48.548C375.389 48.3534 375.11 48.256 374.852 48.256C374.602 48.256 374.39 48.3259 374.217 48.4655C374.043 48.6009 373.906 48.8485 373.804 49.2082C373.707 49.5679 373.658 50.3211 373.658 51.468V53.55ZM385.198 51.3981L386.944 51.7092C386.703 52.3736 386.337 52.8729 385.846 53.2072C385.355 53.5373 384.729 53.7023 383.967 53.7023C383.493 53.7023 383.055 53.6262 382.653 53.4738C382.251 53.3172 381.887 53.0845 381.561 52.7756C381.261 53.0337 380.871 53.2538 380.393 53.4357C379.919 53.6135 379.43 53.7023 378.927 53.7023C378.207 53.7023 377.647 53.5161 377.245 53.1437C376.843 52.7671 376.642 52.2932 376.642 51.7219C376.642 51.3791 376.711 51.0744 376.851 50.8078C376.995 50.5412 377.166 50.3338 377.365 50.1857C377.568 50.0334 377.85 49.9022 378.209 49.7922C378.379 49.7372 378.882 49.6229 379.72 49.4494C380.139 49.3605 380.497 49.2674 380.793 49.1701V48.9924C380.793 48.6665 380.704 48.4232 380.526 48.2624C380.349 48.1016 380.067 48.0212 379.682 48.0212C379.344 48.0212 379.075 48.091 378.876 48.2307C378.677 48.3661 378.535 48.5777 378.451 48.8654L376.832 48.5544C377.044 47.9027 377.376 47.4245 377.829 47.1198C378.286 46.8109 378.98 46.6564 379.911 46.6564C380.351 46.6564 380.742 46.7093 381.085 46.8151C381.432 46.9167 381.728 47.0711 381.974 47.2785C382.232 47.0711 382.513 46.9167 382.818 46.8151C383.127 46.7093 383.457 46.6564 383.808 46.6564C384.485 46.6564 385.056 46.8003 385.522 47.0881C385.992 47.3716 386.36 47.7927 386.626 48.3513C386.897 48.9056 387.031 49.6906 387.026 50.7062H382.545C382.617 51.2818 382.778 51.6986 383.027 51.9567C383.277 52.2149 383.584 52.3439 383.948 52.3439C384.248 52.3439 384.504 52.2678 384.716 52.1154C384.927 51.9588 385.088 51.7197 385.198 51.3981ZM385.268 49.5891C385.243 49.2167 385.192 48.9479 385.116 48.7829C385.01 48.5459 384.849 48.3597 384.633 48.2243C384.422 48.0889 384.172 48.0212 383.884 48.0212C383.635 48.0212 383.415 48.0804 383.224 48.1989C383.038 48.3132 382.89 48.4867 382.78 48.7194C382.632 49.0283 382.564 49.3182 382.577 49.5891H385.268ZM380.78 50.3254C379.803 50.5835 379.272 50.7274 379.187 50.757C378.903 50.8501 378.705 50.9623 378.59 51.0934C378.48 51.2246 378.425 51.3791 378.425 51.5568C378.425 51.8023 378.516 52.0117 378.698 52.1852C378.884 52.3587 379.126 52.4455 379.422 52.4455C379.735 52.4455 380.029 52.346 380.304 52.1472C380.507 51.999 380.636 51.815 380.691 51.5949C380.751 51.3706 380.78 50.9474 380.78 50.3254ZM388.582 53.55V44.2443H390.365V53.55H388.582ZM398.382 53.55H396.726V52.5598C396.451 52.9448 396.125 53.2326 395.748 53.423C395.376 53.6092 394.999 53.7023 394.618 53.7023C393.844 53.7023 393.179 53.3913 392.625 52.7692C392.075 52.1429 391.8 51.2712 391.8 50.154C391.8 49.0114 392.069 48.1439 392.606 47.5515C393.143 46.9548 393.823 46.6564 394.644 46.6564C395.397 46.6564 396.049 46.9696 396.599 47.5959V44.2443H398.382V53.55ZM393.622 50.0334C393.622 50.7528 393.721 51.2733 393.92 51.5949C394.208 52.0604 394.61 52.2932 395.126 52.2932C395.536 52.2932 395.886 52.1196 396.173 51.7726C396.461 51.4214 396.605 50.8988 396.605 50.2048C396.605 49.4304 396.465 48.8739 396.186 48.5353C395.907 48.1926 395.549 48.0212 395.113 48.0212C394.69 48.0212 394.335 48.1905 394.047 48.529C393.763 48.8633 393.622 49.3648 393.622 50.0334ZM401.854 53.55H400.071V46.8088H401.728V47.7673C402.011 47.3145 402.265 47.0161 402.489 46.8723C402.718 46.7284 402.976 46.6564 403.264 46.6564C403.67 46.6564 404.061 46.7686 404.438 46.9929L403.886 48.548C403.585 48.3534 403.306 48.256 403.048 48.256C402.798 48.256 402.587 48.3259 402.413 48.4655C402.24 48.6009 402.102 48.8485 402 49.2082C401.903 49.5679 401.854 50.3211 401.854 51.468V53.55ZM409.116 51.4045L410.894 51.7028C410.665 52.3545 410.303 52.8517 409.808 53.1945C409.317 53.5331 408.701 53.7023 407.961 53.7023C406.789 53.7023 405.921 53.3194 405.358 52.5534C404.914 51.9398 404.692 51.1654 404.692 50.2302C404.692 49.113 404.984 48.2391 405.568 47.6086C406.152 46.9738 406.89 46.6564 407.783 46.6564C408.786 46.6564 409.577 46.9886 410.157 47.653C410.737 48.3132 411.014 49.3267 410.989 50.6935H406.52C406.533 51.2225 406.677 51.6351 406.952 51.9313C407.227 52.2233 407.569 52.3693 407.98 52.3693C408.259 52.3693 408.494 52.2932 408.685 52.1408C408.875 51.9885 409.019 51.743 409.116 51.4045ZM409.218 49.6017C409.205 49.0855 409.072 48.694 408.818 48.4274C408.564 48.1566 408.255 48.0212 407.891 48.0212C407.502 48.0212 407.18 48.1629 406.926 48.4465C406.672 48.73 406.548 49.1151 406.552 49.6017H409.218ZM419.971 51.4045L421.748 51.7028C421.52 52.3545 421.158 52.8517 420.663 53.1945C420.172 53.5331 419.556 53.7023 418.815 53.7023C417.643 53.7023 416.776 53.3194 416.213 52.5534C415.769 51.9398 415.546 51.1654 415.546 50.2302C415.546 49.113 415.838 48.2391 416.422 47.6086C417.006 46.9738 417.745 46.6564 418.638 46.6564C419.641 46.6564 420.432 46.9886 421.012 47.653C421.591 48.3132 421.869 49.3267 421.843 50.6935H417.375C417.387 51.2225 417.531 51.6351 417.806 51.9313C418.081 52.2233 418.424 52.3693 418.834 52.3693C419.114 52.3693 419.349 52.2932 419.539 52.1408C419.729 51.9885 419.873 51.743 419.971 51.4045ZM420.072 49.6017C420.06 49.0855 419.926 48.694 419.672 48.4274C419.418 48.1566 419.11 48.0212 418.746 48.0212C418.356 48.0212 418.035 48.1629 417.781 48.4465C417.527 48.73 417.402 49.1151 417.406 49.6017H420.072ZM425.011 53.55H423.227V46.8088H424.884V47.7673C425.167 47.3145 425.421 47.0161 425.646 46.8723C425.874 46.7284 426.132 46.6564 426.42 46.6564C426.826 46.6564 427.218 46.7686 427.594 46.9929L427.042 48.548C426.742 48.3534 426.462 48.256 426.204 48.256C425.954 48.256 425.743 48.3259 425.569 48.4655C425.396 48.6009 425.258 48.8485 425.157 49.2082C425.059 49.5679 425.011 50.3211 425.011 51.468V53.55ZM431.358 51.6266L433.148 51.3537C433.225 51.7007 433.379 51.9652 433.612 52.1472C433.845 52.3249 434.17 52.4138 434.589 52.4138C435.051 52.4138 435.398 52.3291 435.63 52.1599C435.787 52.0414 435.865 51.8827 435.865 51.6838C435.865 51.5484 435.823 51.4362 435.738 51.3474C435.649 51.2627 435.451 51.1844 435.142 51.1125C433.703 50.7951 432.791 50.5052 432.406 50.2429C431.873 49.8789 431.606 49.3732 431.606 48.7258C431.606 48.1418 431.837 47.6509 432.298 47.2531C432.759 46.8553 433.474 46.6564 434.443 46.6564C435.366 46.6564 436.051 46.8067 436.5 47.1071C436.949 47.4076 437.257 47.8519 437.427 48.4401L435.745 48.7512C435.673 48.4888 435.535 48.2878 435.332 48.1481C435.133 48.0085 434.847 47.9387 434.475 47.9387C434.005 47.9387 433.669 48.0043 433.466 48.1354C433.33 48.2285 433.263 48.3491 433.263 48.4973C433.263 48.6242 433.322 48.7321 433.44 48.821C433.601 48.9395 434.156 49.1066 435.104 49.3224C436.056 49.5383 436.72 49.8028 437.097 50.1159C437.469 50.4333 437.655 50.8755 437.655 51.4426C437.655 52.0604 437.397 52.5915 436.881 53.0358C436.365 53.4802 435.601 53.7023 434.589 53.7023C433.671 53.7023 432.943 53.5161 432.406 53.1437C431.873 52.7713 431.523 52.2656 431.358 51.6266ZM442.314 46.8088V48.2307H441.096V50.9474C441.096 51.4976 441.106 51.8192 441.127 51.9123C441.153 52.0012 441.206 52.0752 441.286 52.1345C441.371 52.1937 441.472 52.2233 441.591 52.2233C441.756 52.2233 441.995 52.1662 442.308 52.0519L442.46 53.4357C442.046 53.6135 441.576 53.7023 441.051 53.7023C440.73 53.7023 440.44 53.6494 440.182 53.5436C439.924 53.4336 439.733 53.294 439.61 53.1247C439.492 52.9512 439.409 52.7184 439.363 52.4265C439.325 52.2191 439.306 51.8002 439.306 51.1696V48.2307H438.487V46.8088H439.306V45.4694L441.096 44.4284V46.8088H442.314ZM447.456 51.4045L449.233 51.7028C449.005 52.3545 448.643 52.8517 448.148 53.1945C447.657 53.5331 447.041 53.7023 446.301 53.7023C445.129 53.7023 444.261 53.3194 443.698 52.5534C443.254 51.9398 443.032 51.1654 443.032 50.2302C443.032 49.113 443.324 48.2391 443.908 47.6086C444.492 46.9738 445.23 46.6564 446.123 46.6564C447.126 46.6564 447.917 46.9886 448.497 47.653C449.077 48.3132 449.354 49.3267 449.329 50.6935H444.86C444.873 51.2225 445.016 51.6351 445.292 51.9313C445.567 52.2233 445.909 52.3693 446.32 52.3693C446.599 52.3693 446.834 52.2932 447.024 52.1408C447.215 51.9885 447.359 51.743 447.456 51.4045ZM447.558 49.6017C447.545 49.0855 447.412 48.694 447.158 48.4274C446.904 48.1566 446.595 48.0212 446.231 48.0212C445.842 48.0212 445.52 48.1629 445.266 48.4465C445.012 48.73 444.887 49.1151 444.892 49.6017H447.558ZM450.624 53.9943L452.661 54.2419C452.695 54.4789 452.773 54.6418 452.896 54.7307C453.065 54.8576 453.332 54.9211 453.696 54.9211C454.161 54.9211 454.51 54.8513 454.743 54.7116C454.9 54.6185 455.018 54.4683 455.099 54.2609C455.154 54.1128 455.181 53.8399 455.181 53.4421V52.4582C454.648 53.1861 453.975 53.55 453.163 53.55C452.257 53.55 451.54 53.167 451.011 52.4011C450.596 51.7959 450.389 51.0427 450.389 50.1413C450.389 49.0114 450.66 48.1481 451.201 47.5515C451.747 46.9548 452.424 46.6564 453.232 46.6564C454.066 46.6564 454.754 47.0225 455.295 47.7546V46.8088H456.965V52.8581C456.965 53.6537 456.899 54.2482 456.768 54.6418C456.637 55.0353 456.453 55.3443 456.216 55.5685C455.979 55.7928 455.661 55.9684 455.264 56.0954C454.87 56.2224 454.371 56.2858 453.766 56.2858C452.623 56.2858 451.813 56.0891 451.334 55.6955C450.856 55.3062 450.617 54.8111 450.617 54.2101C450.617 54.1509 450.619 54.079 450.624 53.9943ZM452.217 50.0397C452.217 50.7549 452.354 51.2796 452.629 51.614C452.909 51.944 453.251 52.1091 453.658 52.1091C454.094 52.1091 454.462 51.9398 454.762 51.6013C455.063 51.2585 455.213 50.7528 455.213 50.0842C455.213 49.3859 455.069 48.8675 454.781 48.529C454.493 48.1905 454.13 48.0212 453.689 48.0212C453.262 48.0212 452.909 48.1883 452.629 48.5226C452.354 48.8527 452.217 49.3584 452.217 50.0397ZM462.64 51.4045L464.417 51.7028C464.188 52.3545 463.827 52.8517 463.332 53.1945C462.841 53.5331 462.225 53.7023 461.484 53.7023C460.312 53.7023 459.445 53.3194 458.882 52.5534C458.438 51.9398 458.215 51.1654 458.215 50.2302C458.215 49.113 458.507 48.2391 459.091 47.6086C459.675 46.9738 460.414 46.6564 461.307 46.6564C462.31 46.6564 463.101 46.9886 463.681 47.653C464.26 48.3132 464.538 49.3267 464.512 50.6935H460.043C460.056 51.2225 460.2 51.6351 460.475 51.9313C460.75 52.2233 461.093 52.3693 461.503 52.3693C461.783 52.3693 462.018 52.2932 462.208 52.1408C462.398 51.9885 462.542 51.743 462.64 51.4045ZM462.741 49.6017C462.729 49.0855 462.595 48.694 462.341 48.4274C462.087 48.1566 461.778 48.0212 461.415 48.0212C461.025 48.0212 460.704 48.1629 460.45 48.4465C460.196 48.73 460.071 49.1151 460.075 49.6017H462.741ZM469.063 46.8088V48.2307H467.845V50.9474C467.845 51.4976 467.855 51.8192 467.876 51.9123C467.902 52.0012 467.955 52.0752 468.035 52.1345C468.12 52.1937 468.221 52.2233 468.34 52.2233C468.505 52.2233 468.744 52.1662 469.057 52.0519L469.209 53.4357C468.795 53.6135 468.325 53.7023 467.8 53.7023C467.479 53.7023 467.189 53.6494 466.931 53.5436C466.673 53.4336 466.482 53.294 466.359 53.1247C466.241 52.9512 466.158 52.7184 466.112 52.4265C466.074 52.2191 466.055 51.8002 466.055 51.1696V48.2307H465.236V46.8088H466.055V45.4694L467.845 44.4284V46.8088H469.063Z" fill="black"/>
<path d="M673.965 87.55V78.2443H675.818L678.021 84.8332C678.224 85.4468 678.372 85.9059 678.465 86.2106C678.571 85.8721 678.736 85.3749 678.96 84.7189L681.188 78.2443H682.845V87.55H681.658V79.7614L678.954 87.55H677.843L675.152 79.6281V87.55H673.965ZM694.836 85.487C694.624 86.1937 694.265 86.7396 693.757 87.1247C693.249 87.5098 692.618 87.7023 691.865 87.7023C691.328 87.7023 690.856 87.6008 690.45 87.3976C690.048 87.1945 689.684 86.8771 689.358 86.4455C688.918 86.8771 688.471 87.1945 688.019 87.3976C687.57 87.6008 687.085 87.7023 686.565 87.7023C685.837 87.7023 685.27 87.5161 684.864 87.1437C684.462 86.7671 684.261 86.3101 684.261 85.7726C684.261 85.4087 684.364 85.0681 684.572 84.7507C684.783 84.4291 685.075 84.1857 685.448 84.0207C685.824 83.8557 686.423 83.7202 687.244 83.6144C687.879 83.5298 688.412 83.4261 688.844 83.3034C688.848 83.1976 688.85 83.1109 688.85 83.0432C688.85 82.5099 688.738 82.1376 688.514 81.926C688.294 81.7101 687.906 81.6022 687.352 81.6022C686.984 81.6022 686.673 81.6467 686.419 81.7355C686.165 81.8244 685.977 81.9514 685.854 82.1164C685.736 82.2772 685.636 82.5375 685.556 82.8972L684.445 82.7639C684.563 82.2687 684.733 81.8773 684.953 81.5895C685.177 81.2975 685.496 81.069 685.911 80.904C686.326 80.739 686.81 80.6564 687.365 80.6564C688.071 80.6564 688.641 80.7622 689.072 80.9738C689.322 81.0965 689.531 81.2933 689.701 81.5641C689.972 81.2679 690.278 81.0436 690.621 80.8913C690.964 80.7347 691.379 80.6564 691.865 80.6564C692.551 80.6564 693.118 80.8236 693.566 81.1579C694.015 81.488 694.343 81.926 694.55 82.4719C694.758 83.0178 694.861 83.5552 694.861 84.0842C694.861 84.1646 694.857 84.2936 694.849 84.4714H689.98C689.988 85.0807 690.062 85.523 690.202 85.798C690.346 86.0731 690.572 86.3037 690.881 86.4899C691.194 86.6719 691.537 86.7629 691.91 86.7629C692.346 86.7629 692.714 86.638 693.014 86.3884C693.319 86.1387 693.528 85.7875 693.643 85.3347L694.836 85.487ZM689.98 83.5319H693.687C693.628 82.8633 693.437 82.3745 693.116 82.0656C692.794 81.7567 692.375 81.6022 691.859 81.6022C691.326 81.6022 690.888 81.7715 690.545 82.11C690.206 82.4486 690.018 82.9225 689.98 83.5319ZM688.863 84.1667C688.528 84.3106 687.847 84.465 686.819 84.6301C686.358 84.702 686.034 84.8099 685.848 84.9538C685.598 85.1527 685.473 85.4129 685.473 85.7346C685.473 86.035 685.585 86.2889 685.81 86.4963C686.034 86.6994 686.36 86.801 686.787 86.801C687.274 86.801 687.697 86.6804 688.057 86.4391C688.421 86.1979 688.658 85.8975 688.768 85.5378C688.831 85.3177 688.863 84.8607 688.863 84.1667ZM696.251 87.55V80.8088H697.28V81.7673C697.775 81.0267 698.49 80.6564 699.425 80.6564C699.832 80.6564 700.204 80.7305 700.542 80.8786C700.885 81.0225 701.141 81.2129 701.311 81.4499C701.48 81.6869 701.598 81.9683 701.666 82.2941C701.708 82.5057 701.729 82.876 701.729 83.405V87.55H700.587V83.4494C700.587 82.9839 700.542 82.6369 700.454 82.4084C700.365 82.1756 700.206 81.9916 699.978 81.8561C699.753 81.7165 699.489 81.6467 699.184 81.6467C698.697 81.6467 698.276 81.8011 697.921 82.11C697.57 82.419 697.394 83.0051 697.394 83.8683V87.55H696.251ZM707.861 87.55V86.6994C707.434 87.368 706.806 87.7023 705.976 87.7023C705.439 87.7023 704.944 87.5542 704.491 87.258C704.042 86.9618 703.693 86.5492 703.443 86.0202C703.198 85.487 703.075 84.8755 703.075 84.1857C703.075 83.5129 703.187 82.9035 703.412 82.3576C703.636 81.8075 703.972 81.3864 704.421 81.0944C704.869 80.8024 705.371 80.6564 705.925 80.6564C706.332 80.6564 706.693 80.7432 707.011 80.9167C707.328 81.086 707.586 81.3081 707.785 81.5832V78.2443H708.921V87.55H707.861ZM704.25 84.1857C704.25 85.049 704.431 85.6944 704.795 86.1218C705.159 86.5492 705.589 86.7629 706.084 86.7629C706.583 86.7629 707.007 86.5598 707.354 86.1535C707.705 85.743 707.88 85.1188 707.88 84.2809C707.88 83.3584 707.703 82.6813 707.347 82.2497C706.992 81.8181 706.554 81.6022 706.033 81.6022C705.525 81.6022 705.1 81.8096 704.757 82.2243C704.419 82.639 704.25 83.2928 704.25 84.1857Z" fill="#222222"/>
<path d="M668 77.5H642V90.5H668V77.5Z" fill="#3366CC"/>
<path d="M673.952 108.55V99.2443H675.184V103.859L679.805 99.2443H681.474L677.57 103.015L681.646 108.55H680.021L676.707 103.84L675.184 105.325V108.55H673.952ZM684.4 108.55L681.836 101.809H683.042L684.489 105.846C684.646 106.282 684.79 106.735 684.921 107.204C685.022 106.849 685.164 106.421 685.346 105.922L686.844 101.809H688.019L685.467 108.55H684.4ZM689.034 100.558V99.2443H690.177V100.558H689.034ZM689.034 108.55V101.809H690.177V108.55H689.034ZM691.922 108.55V101.809H692.951V102.767C693.446 102.027 694.161 101.656 695.096 101.656C695.502 101.656 695.875 101.73 696.213 101.879C696.556 102.022 696.812 102.213 696.981 102.45C697.151 102.687 697.269 102.968 697.337 103.294C697.379 103.506 697.4 103.876 697.4 104.405V108.55H696.258V104.449C696.258 103.984 696.213 103.637 696.125 103.408C696.036 103.176 695.877 102.992 695.648 102.856C695.424 102.716 695.16 102.647 694.855 102.647C694.368 102.647 693.947 102.801 693.592 103.11C693.241 103.419 693.065 104.005 693.065 104.868V108.55H691.922ZM703.532 108.55V107.699C703.105 108.368 702.476 108.702 701.647 108.702C701.11 108.702 700.614 108.554 700.162 108.258C699.713 107.962 699.364 107.549 699.114 107.02C698.869 106.487 698.746 105.876 698.746 105.186C698.746 104.513 698.858 103.904 699.083 103.358C699.307 102.807 699.643 102.386 700.092 102.094C700.54 101.802 701.042 101.656 701.596 101.656C702.002 101.656 702.364 101.743 702.682 101.917C702.999 102.086 703.257 102.308 703.456 102.583V99.2443H704.592V108.55H703.532ZM699.92 105.186C699.92 106.049 700.102 106.694 700.466 107.122C700.83 107.549 701.26 107.763 701.755 107.763C702.254 107.763 702.677 107.56 703.024 107.154C703.376 106.743 703.551 106.119 703.551 105.281C703.551 104.358 703.374 103.681 703.018 103.25C702.663 102.818 702.225 102.602 701.704 102.602C701.196 102.602 700.771 102.81 700.428 103.224C700.09 103.639 699.92 104.293 699.92 105.186ZM711.01 106.379L712.19 106.525C712.004 107.215 711.659 107.75 711.156 108.131C710.652 108.512 710.009 108.702 709.226 108.702C708.24 108.702 707.457 108.4 706.877 107.795C706.302 107.185 706.014 106.333 706.014 105.237C706.014 104.102 706.306 103.222 706.89 102.596C707.474 101.97 708.232 101.656 709.163 101.656C710.064 101.656 710.8 101.963 711.372 102.577C711.943 103.19 712.229 104.054 712.229 105.167C712.229 105.234 712.226 105.336 712.222 105.471H707.195C707.237 106.212 707.447 106.779 707.823 107.173C708.2 107.566 708.67 107.763 709.232 107.763C709.651 107.763 710.009 107.653 710.305 107.433C710.601 107.213 710.836 106.862 711.01 106.379ZM707.258 104.532H711.022C710.972 103.965 710.828 103.54 710.591 103.256C710.227 102.816 709.755 102.596 709.175 102.596C708.651 102.596 708.208 102.772 707.849 103.123C707.493 103.474 707.296 103.944 707.258 104.532ZM713.619 108.55V101.809H714.647V102.831C714.909 102.353 715.151 102.037 715.371 101.885C715.595 101.733 715.84 101.656 716.107 101.656C716.492 101.656 716.883 101.779 717.281 102.025L716.888 103.085C716.608 102.92 716.329 102.837 716.05 102.837C715.8 102.837 715.576 102.913 715.377 103.066C715.178 103.214 715.036 103.421 714.952 103.688C714.825 104.094 714.761 104.538 714.761 105.021V108.55H713.619Z" fill="#222222"/>
<path d="M668 98.5H642V111.5H668V98.5Z" fill="#DC3912"/>
<path d="M629 323.5H131V324.5H629V323.5Z" fill="#CCCCCC"/>
<path d="M629 262.5H131V263.5H629V262.5Z" fill="#CCCCCC"/>
<path d="M629 200.5H131V201.5H629V200.5Z" fill="#CCCCCC"/>
<path d="M629 139.5H131V140.5H629V139.5Z" fill="#CCCCCC"/>
<path d="M629 77.5H131V78.5H629V77.5Z" fill="#CCCCCC"/>
<path d="M629 292.5H131V293.5H629V292.5Z" fill="#EBEBEB"/>
<path d="M629 231.5H131V232.5H629V231.5Z" fill="#EBEBEB"/>
<path d="M629 169.5H131V170.5H629V169.5Z" fill="#EBEBEB"/>
<path d="M629 108.5H131V109.5H629V108.5Z" fill="#EBEBEB"/>
<path d="M167 323.5H145V324H167V323.5Z" fill="#3366CC"/>
<path d="M238 323.5H216V324H238V323.5Z" fill="#3366CC"/>
<path d="M309 323.5H287V324H309V323.5Z" fill="#3366CC"/>
<path d="M380 147.5H358V323.5H380V147.5Z" fill="#3366CC"/>
<path d="M451 136.5H429V323.5H451V136.5Z" fill="#3366CC"/>
<path d="M522 132.5H500V323.5H522V132.5Z" fill="#3366CC"/>
<path d="M592 130.5H571V323.5H592V130.5Z" fill="#3366CC"/>
<path d="M189 182.5H168V323.5H189V182.5Z" fill="#DC3912"/>
<path d="M260 178.5H239V323.5H260V178.5Z" fill="#DC3912"/>
<path d="M331 173.5H310V323.5H331V173.5Z" fill="#DC3912"/>
<path d="M402 162.5H381V323.5H402V162.5Z" fill="#DC3912"/>
<path d="M473 151.5H452V323.5H473V151.5Z" fill="#DC3912"/>
<path d="M544 146.5H523V323.5H544V146.5Z" fill="#DC3912"/>
<path d="M615 142.5H594V323.5H615V142.5Z" fill="#DC3912"/>
<path d="M629 323.5H131V324.5H629V323.5Z" fill="#333333"/>
<path d="M157.343 342.55H156.201V335.269C155.926 335.532 155.564 335.794 155.115 336.056C154.671 336.319 154.271 336.515 153.916 336.647V335.542C154.555 335.242 155.113 334.878 155.591 334.45C156.069 334.023 156.408 333.608 156.607 333.206H157.343V342.55ZM160.447 340.398L161.545 340.297C161.639 340.813 161.816 341.187 162.079 341.42C162.341 341.653 162.677 341.769 163.088 341.769C163.439 341.769 163.746 341.689 164.008 341.528C164.275 341.367 164.493 341.154 164.662 340.887C164.831 340.616 164.973 340.252 165.087 339.795C165.202 339.338 165.259 338.873 165.259 338.399C165.259 338.348 165.257 338.272 165.252 338.17C165.024 338.534 164.711 338.83 164.313 339.059C163.919 339.283 163.492 339.395 163.031 339.395C162.261 339.395 161.609 339.116 161.076 338.557C160.542 337.999 160.276 337.262 160.276 336.348C160.276 335.405 160.553 334.645 161.107 334.07C161.666 333.494 162.364 333.206 163.202 333.206C163.807 333.206 164.36 333.369 164.859 333.695C165.362 334.021 165.743 334.486 166.001 335.091C166.264 335.692 166.395 336.564 166.395 337.707C166.395 338.896 166.266 339.844 166.008 340.55C165.75 341.253 165.365 341.788 164.853 342.156C164.345 342.525 163.748 342.709 163.062 342.709C162.335 342.709 161.74 342.508 161.279 342.106C160.818 341.699 160.54 341.13 160.447 340.398ZM165.125 336.291C165.125 335.635 164.95 335.115 164.599 334.73C164.252 334.345 163.833 334.152 163.342 334.152C162.834 334.152 162.392 334.359 162.015 334.774C161.639 335.189 161.45 335.726 161.45 336.386C161.45 336.979 161.628 337.461 161.983 337.834C162.343 338.202 162.785 338.386 163.31 338.386C163.839 338.386 164.273 338.202 164.611 337.834C164.954 337.461 165.125 336.947 165.125 336.291ZM173.441 335.523L172.305 335.612C172.203 335.163 172.059 334.838 171.873 334.634C171.564 334.309 171.183 334.146 170.73 334.146C170.367 334.146 170.047 334.247 169.772 334.45C169.412 334.713 169.129 335.096 168.921 335.599C168.714 336.103 168.606 336.82 168.598 337.751C168.873 337.332 169.209 337.021 169.607 336.818C170.005 336.615 170.422 336.513 170.857 336.513C171.619 336.513 172.267 336.795 172.8 337.358C173.337 337.916 173.606 338.64 173.606 339.529C173.606 340.112 173.479 340.656 173.225 341.16C172.975 341.659 172.631 342.042 172.19 342.309C171.75 342.575 171.251 342.709 170.692 342.709C169.74 342.709 168.964 342.36 168.363 341.661C167.762 340.959 167.461 339.804 167.461 338.195C167.461 336.397 167.794 335.089 168.458 334.273C169.038 333.562 169.819 333.206 170.8 333.206C171.532 333.206 172.131 333.411 172.597 333.822C173.066 334.232 173.348 334.799 173.441 335.523ZM168.775 339.535C168.775 339.928 168.858 340.305 169.023 340.665C169.192 341.024 169.427 341.299 169.728 341.49C170.028 341.676 170.343 341.769 170.673 341.769C171.156 341.769 171.57 341.575 171.917 341.185C172.264 340.796 172.438 340.267 172.438 339.598C172.438 338.955 172.267 338.449 171.924 338.081C171.581 337.709 171.149 337.523 170.629 337.523C170.113 337.523 169.675 337.709 169.315 338.081C168.955 338.449 168.775 338.934 168.775 339.535ZM174.749 337.961C174.749 336.86 174.861 335.976 175.085 335.307C175.313 334.634 175.65 334.116 176.094 333.752C176.543 333.388 177.106 333.206 177.783 333.206C178.282 333.206 178.72 333.308 179.097 333.511C179.473 333.71 179.784 334 180.03 334.381C180.275 334.757 180.468 335.218 180.607 335.764C180.747 336.306 180.817 337.038 180.817 337.961C180.817 339.052 180.705 339.935 180.48 340.608C180.256 341.276 179.92 341.795 179.471 342.163C179.027 342.527 178.464 342.709 177.783 342.709C176.886 342.709 176.181 342.387 175.669 341.744C175.055 340.969 174.749 339.708 174.749 337.961ZM175.923 337.961C175.923 339.488 176.101 340.506 176.456 341.014C176.816 341.517 177.258 341.769 177.783 341.769C178.307 341.769 178.748 341.515 179.103 341.008C179.463 340.5 179.643 339.484 179.643 337.961C179.643 336.429 179.463 335.411 179.103 334.907C178.748 334.404 178.303 334.152 177.77 334.152C177.245 334.152 176.826 334.374 176.513 334.819C176.12 335.386 175.923 336.433 175.923 337.961Z" fill="#222222"/>
<path d="M228.343 342.55H227.201V335.269C226.926 335.532 226.564 335.794 226.115 336.056C225.671 336.319 225.271 336.515 224.916 336.647V335.542C225.555 335.242 226.113 334.878 226.591 334.45C227.069 334.023 227.408 333.608 227.607 333.206H228.343V342.55ZM231.447 340.398L232.545 340.297C232.639 340.813 232.816 341.187 233.079 341.42C233.341 341.653 233.677 341.769 234.088 341.769C234.439 341.769 234.746 341.689 235.008 341.528C235.275 341.367 235.493 341.154 235.662 340.887C235.831 340.616 235.973 340.252 236.087 339.795C236.202 339.338 236.259 338.873 236.259 338.399C236.259 338.348 236.257 338.272 236.252 338.17C236.024 338.534 235.711 338.83 235.313 339.059C234.919 339.283 234.492 339.395 234.031 339.395C233.261 339.395 232.609 339.116 232.076 338.557C231.542 337.999 231.276 337.262 231.276 336.348C231.276 335.405 231.553 334.645 232.107 334.07C232.666 333.494 233.364 333.206 234.202 333.206C234.807 333.206 235.36 333.369 235.859 333.695C236.362 334.021 236.743 334.486 237.001 335.091C237.264 335.692 237.395 336.564 237.395 337.707C237.395 338.896 237.266 339.844 237.008 340.55C236.75 341.253 236.365 341.788 235.853 342.156C235.345 342.525 234.748 342.709 234.062 342.709C233.335 342.709 232.74 342.508 232.279 342.106C231.818 341.699 231.54 341.13 231.447 340.398ZM236.125 336.291C236.125 335.635 235.95 335.115 235.599 334.73C235.252 334.345 234.833 334.152 234.342 334.152C233.834 334.152 233.392 334.359 233.015 334.774C232.639 335.189 232.45 335.726 232.45 336.386C232.45 336.979 232.628 337.461 232.983 337.834C233.343 338.202 233.785 338.386 234.31 338.386C234.839 338.386 235.273 338.202 235.611 337.834C235.954 337.461 236.125 336.947 236.125 336.291ZM238.588 334.463V333.365H244.612V334.254C244.02 334.884 243.432 335.722 242.848 336.767C242.268 337.813 241.819 338.887 241.502 339.992C241.273 340.771 241.127 341.623 241.064 342.55H239.89C239.902 341.818 240.046 340.933 240.321 339.897C240.596 338.86 240.99 337.861 241.502 336.901C242.018 335.936 242.566 335.123 243.146 334.463H238.588ZM245.749 337.961C245.749 336.86 245.861 335.976 246.085 335.307C246.313 334.634 246.65 334.116 247.094 333.752C247.543 333.388 248.106 333.206 248.783 333.206C249.282 333.206 249.72 333.308 250.097 333.511C250.473 333.71 250.784 334 251.03 334.381C251.275 334.757 251.468 335.218 251.607 335.764C251.747 336.306 251.817 337.038 251.817 337.961C251.817 339.052 251.705 339.935 251.48 340.608C251.256 341.276 250.92 341.795 250.471 342.163C250.027 342.527 249.464 342.709 248.783 342.709C247.886 342.709 247.181 342.387 246.669 341.744C246.055 340.969 245.749 339.708 245.749 337.961ZM246.923 337.961C246.923 339.488 247.101 340.506 247.456 341.014C247.816 341.517 248.258 341.769 248.783 341.769C249.307 341.769 249.748 341.515 250.103 341.008C250.463 340.5 250.643 339.484 250.643 337.961C250.643 336.429 250.463 335.411 250.103 334.907C249.748 334.404 249.303 334.152 248.77 334.152C248.245 334.152 247.826 334.374 247.513 334.819C247.12 335.386 246.923 336.433 246.923 337.961Z" fill="#222222"/>
<path d="M299.343 342.55H298.201V335.269C297.926 335.532 297.564 335.794 297.115 336.056C296.671 336.319 296.271 336.515 295.916 336.647V335.542C296.555 335.242 297.113 334.878 297.591 334.45C298.069 334.023 298.408 333.608 298.607 333.206H299.343V342.55ZM302.447 340.398L303.545 340.297C303.639 340.813 303.816 341.187 304.079 341.42C304.341 341.653 304.677 341.769 305.088 341.769C305.439 341.769 305.746 341.689 306.008 341.528C306.275 341.367 306.493 341.154 306.662 340.887C306.831 340.616 306.973 340.252 307.087 339.795C307.202 339.338 307.259 338.873 307.259 338.399C307.259 338.348 307.257 338.272 307.252 338.17C307.024 338.534 306.711 338.83 306.313 339.059C305.919 339.283 305.492 339.395 305.031 339.395C304.261 339.395 303.609 339.116 303.076 338.557C302.542 337.999 302.276 337.262 302.276 336.348C302.276 335.405 302.553 334.645 303.107 334.07C303.666 333.494 304.364 333.206 305.202 333.206C305.807 333.206 306.36 333.369 306.859 333.695C307.362 334.021 307.743 334.486 308.001 335.091C308.264 335.692 308.395 336.564 308.395 337.707C308.395 338.896 308.266 339.844 308.008 340.55C307.75 341.253 307.365 341.788 306.853 342.156C306.345 342.525 305.748 342.709 305.062 342.709C304.335 342.709 303.74 342.508 303.279 342.106C302.818 341.699 302.54 341.13 302.447 340.398ZM307.125 336.291C307.125 335.635 306.95 335.115 306.599 334.73C306.252 334.345 305.833 334.152 305.342 334.152C304.834 334.152 304.392 334.359 304.015 334.774C303.639 335.189 303.45 335.726 303.45 336.386C303.45 336.979 303.628 337.461 303.983 337.834C304.343 338.202 304.785 338.386 305.31 338.386C305.839 338.386 306.273 338.202 306.611 337.834C306.954 337.461 307.125 336.947 307.125 336.291ZM311.271 337.504C310.797 337.33 310.445 337.083 310.217 336.761C309.988 336.439 309.874 336.054 309.874 335.606C309.874 334.929 310.117 334.359 310.604 333.898C311.091 333.437 311.738 333.206 312.546 333.206C313.359 333.206 314.013 333.443 314.508 333.917C315.003 334.387 315.25 334.96 315.25 335.637C315.25 336.069 315.136 336.446 314.908 336.767C314.683 337.085 314.341 337.33 313.879 337.504C314.451 337.69 314.884 337.99 315.181 338.405C315.481 338.82 315.631 339.315 315.631 339.89C315.631 340.686 315.35 341.355 314.787 341.896C314.224 342.438 313.484 342.709 312.565 342.709C311.647 342.709 310.907 342.438 310.344 341.896C309.781 341.35 309.5 340.671 309.5 339.859C309.5 339.253 309.652 338.748 309.957 338.341C310.265 337.931 310.703 337.652 311.271 337.504ZM311.042 335.568C311.042 336.008 311.184 336.367 311.467 336.647C311.751 336.926 312.119 337.066 312.572 337.066C313.012 337.066 313.372 336.928 313.651 336.653C313.934 336.374 314.076 336.033 314.076 335.631C314.076 335.212 313.93 334.861 313.638 334.577C313.35 334.29 312.991 334.146 312.559 334.146C312.123 334.146 311.761 334.285 311.474 334.565C311.186 334.844 311.042 335.178 311.042 335.568ZM310.674 339.865C310.674 340.191 310.75 340.506 310.902 340.811C311.059 341.115 311.29 341.352 311.594 341.522C311.899 341.687 312.227 341.769 312.578 341.769C313.124 341.769 313.575 341.594 313.93 341.242C314.286 340.891 314.463 340.445 314.463 339.903C314.463 339.353 314.279 338.898 313.911 338.538C313.547 338.179 313.09 337.999 312.54 337.999C312.003 337.999 311.556 338.176 311.201 338.532C310.849 338.887 310.674 339.332 310.674 339.865ZM316.749 337.961C316.749 336.86 316.861 335.976 317.085 335.307C317.313 334.634 317.65 334.116 318.094 333.752C318.543 333.388 319.106 333.206 319.783 333.206C320.282 333.206 320.72 333.308 321.097 333.511C321.473 333.71 321.784 334 322.03 334.381C322.275 334.757 322.468 335.218 322.607 335.764C322.747 336.306 322.817 337.038 322.817 337.961C322.817 339.052 322.705 339.935 322.48 340.608C322.256 341.276 321.92 341.795 321.471 342.163C321.027 342.527 320.464 342.709 319.783 342.709C318.886 342.709 318.181 342.387 317.669 341.744C317.055 340.969 316.749 339.708 316.749 337.961ZM317.923 337.961C317.923 339.488 318.101 340.506 318.456 341.014C318.816 341.517 319.258 341.769 319.783 341.769C320.307 341.769 320.748 341.515 321.103 341.008C321.463 340.5 321.643 339.484 321.643 337.961C321.643 336.429 321.463 335.411 321.103 334.907C320.748 334.404 320.303 334.152 319.77 334.152C319.245 334.152 318.826 334.374 318.513 334.819C318.12 335.386 317.923 336.433 317.923 337.961Z" fill="#222222"/>
<path d="M370.343 342.55H369.201V335.269C368.926 335.532 368.564 335.794 368.115 336.056C367.671 336.319 367.271 336.515 366.916 336.647V335.542C367.555 335.242 368.113 334.878 368.591 334.45C369.069 334.023 369.408 333.608 369.607 333.206H370.343V342.55ZM373.447 340.398L374.545 340.297C374.639 340.813 374.816 341.187 375.079 341.42C375.341 341.653 375.677 341.769 376.088 341.769C376.439 341.769 376.746 341.689 377.008 341.528C377.275 341.367 377.493 341.154 377.662 340.887C377.831 340.616 377.973 340.252 378.087 339.795C378.202 339.338 378.259 338.873 378.259 338.399C378.259 338.348 378.257 338.272 378.252 338.17C378.024 338.534 377.711 338.83 377.313 339.059C376.919 339.283 376.492 339.395 376.031 339.395C375.261 339.395 374.609 339.116 374.076 338.557C373.542 337.999 373.276 337.262 373.276 336.348C373.276 335.405 373.553 334.645 374.107 334.07C374.666 333.494 375.364 333.206 376.202 333.206C376.807 333.206 377.36 333.369 377.859 333.695C378.362 334.021 378.743 334.486 379.001 335.091C379.264 335.692 379.395 336.564 379.395 337.707C379.395 338.896 379.266 339.844 379.008 340.55C378.75 341.253 378.365 341.788 377.853 342.156C377.345 342.525 376.748 342.709 376.062 342.709C375.335 342.709 374.74 342.508 374.279 342.106C373.818 341.699 373.54 341.13 373.447 340.398ZM378.125 336.291C378.125 335.635 377.95 335.115 377.599 334.73C377.252 334.345 376.833 334.152 376.342 334.152C375.834 334.152 375.392 334.359 375.015 334.774C374.639 335.189 374.45 335.726 374.45 336.386C374.45 336.979 374.628 337.461 374.983 337.834C375.343 338.202 375.785 338.386 376.31 338.386C376.839 338.386 377.273 338.202 377.611 337.834C377.954 337.461 378.125 336.947 378.125 336.291ZM380.684 340.398L381.782 340.297C381.875 340.813 382.053 341.187 382.315 341.42C382.577 341.653 382.914 341.769 383.324 341.769C383.675 341.769 383.982 341.689 384.245 341.528C384.511 341.367 384.729 341.154 384.898 340.887C385.068 340.616 385.209 340.252 385.324 339.795C385.438 339.338 385.495 338.873 385.495 338.399C385.495 338.348 385.493 338.272 385.489 338.17C385.26 338.534 384.947 338.83 384.549 339.059C384.156 339.283 383.728 339.395 383.267 339.395C382.497 339.395 381.845 339.116 381.312 338.557C380.779 337.999 380.512 337.262 380.512 336.348C380.512 335.405 380.789 334.645 381.344 334.07C381.902 333.494 382.601 333.206 383.438 333.206C384.044 333.206 384.596 333.369 385.095 333.695C385.599 334.021 385.98 334.486 386.238 335.091C386.5 335.692 386.631 336.564 386.631 337.707C386.631 338.896 386.502 339.844 386.244 340.55C385.986 341.253 385.601 341.788 385.089 342.156C384.581 342.525 383.984 342.709 383.299 342.709C382.571 342.709 381.976 342.508 381.515 342.106C381.054 341.699 380.777 341.13 380.684 340.398ZM385.362 336.291C385.362 335.635 385.186 335.115 384.835 334.73C384.488 334.345 384.069 334.152 383.578 334.152C383.07 334.152 382.628 334.359 382.251 334.774C381.875 335.189 381.687 335.726 381.687 336.386C381.687 336.979 381.864 337.461 382.22 337.834C382.579 338.202 383.022 338.386 383.546 338.386C384.075 338.386 384.509 338.202 384.848 337.834C385.19 337.461 385.362 336.947 385.362 336.291ZM387.749 337.961C387.749 336.86 387.861 335.976 388.085 335.307C388.313 334.634 388.65 334.116 389.094 333.752C389.543 333.388 390.106 333.206 390.783 333.206C391.282 333.206 391.72 333.308 392.097 333.511C392.473 333.71 392.784 334 393.03 334.381C393.275 334.757 393.468 335.218 393.607 335.764C393.747 336.306 393.817 337.038 393.817 337.961C393.817 339.052 393.705 339.935 393.48 340.608C393.256 341.276 392.92 341.795 392.471 342.163C392.027 342.527 391.464 342.709 390.783 342.709C389.886 342.709 389.181 342.387 388.669 341.744C388.055 340.969 387.749 339.708 387.749 337.961ZM388.923 337.961C388.923 339.488 389.101 340.506 389.456 341.014C389.816 341.517 390.258 341.769 390.783 341.769C391.307 341.769 391.748 341.515 392.103 341.008C392.463 340.5 392.643 339.484 392.643 337.961C392.643 336.429 392.463 335.411 392.103 334.907C391.748 334.404 391.303 334.152 390.77 334.152C390.245 334.152 389.826 334.374 389.513 334.819C389.12 335.386 388.923 336.433 388.923 337.961Z" fill="#222222"/>
<path d="M443.044 341.452V342.55H436.894C436.885 342.275 436.93 342.01 437.027 341.757C437.183 341.338 437.433 340.925 437.776 340.519C438.123 340.112 438.622 339.643 439.274 339.11C440.285 338.28 440.969 337.624 441.324 337.142C441.68 336.655 441.857 336.196 441.857 335.764C441.857 335.312 441.694 334.931 441.369 334.622C441.047 334.309 440.626 334.152 440.105 334.152C439.555 334.152 439.115 334.317 438.785 334.647C438.455 334.977 438.288 335.434 438.284 336.018L437.109 335.898C437.19 335.022 437.492 334.355 438.017 333.898C438.542 333.437 439.246 333.206 440.131 333.206C441.024 333.206 441.73 333.454 442.251 333.949C442.771 334.444 443.032 335.058 443.032 335.79C443.032 336.162 442.956 336.528 442.803 336.888C442.651 337.248 442.397 337.626 442.042 338.024C441.69 338.422 441.104 338.968 440.283 339.662C439.598 340.237 439.158 340.629 438.963 340.836C438.768 341.039 438.607 341.244 438.48 341.452H443.044ZM444.276 337.961C444.276 336.86 444.388 335.976 444.612 335.307C444.841 334.634 445.177 334.116 445.622 333.752C446.07 333.388 446.633 333.206 447.31 333.206C447.809 333.206 448.247 333.308 448.624 333.511C449.001 333.71 449.312 334 449.557 334.381C449.803 334.757 449.995 335.218 450.135 335.764C450.274 336.306 450.344 337.038 450.344 337.961C450.344 339.052 450.232 339.935 450.008 340.608C449.784 341.276 449.447 341.795 448.999 342.163C448.554 342.527 447.991 342.709 447.31 342.709C446.413 342.709 445.708 342.387 445.196 341.744C444.583 340.969 444.276 339.708 444.276 337.961ZM445.45 337.961C445.45 339.488 445.628 340.506 445.983 341.014C446.343 341.517 446.785 341.769 447.31 341.769C447.835 341.769 448.275 341.515 448.63 341.008C448.99 340.5 449.17 339.484 449.17 337.961C449.17 336.429 448.99 335.411 448.63 334.907C448.275 334.404 447.831 334.152 447.297 334.152C446.773 334.152 446.354 334.374 446.041 334.819C445.647 335.386 445.45 336.433 445.45 337.961ZM451.512 337.961C451.512 336.86 451.624 335.976 451.849 335.307C452.077 334.634 452.414 334.116 452.858 333.752C453.306 333.388 453.869 333.206 454.546 333.206C455.046 333.206 455.484 333.308 455.86 333.511C456.237 333.71 456.548 334 456.793 334.381C457.039 334.757 457.231 335.218 457.371 335.764C457.511 336.306 457.581 337.038 457.581 337.961C457.581 339.052 457.468 339.935 457.244 340.608C457.02 341.276 456.683 341.795 456.235 342.163C455.791 342.527 455.228 342.709 454.546 342.709C453.649 342.709 452.945 342.387 452.433 341.744C451.819 340.969 451.512 339.708 451.512 337.961ZM452.687 337.961C452.687 339.488 452.864 340.506 453.22 341.014C453.579 341.517 454.022 341.769 454.546 341.769C455.071 341.769 455.511 341.515 455.867 341.008C456.226 340.5 456.406 339.484 456.406 337.961C456.406 336.429 456.226 335.411 455.867 334.907C455.511 334.404 455.067 334.152 454.534 334.152C454.009 334.152 453.59 334.374 453.277 334.819C452.883 335.386 452.687 336.433 452.687 337.961ZM458.749 337.961C458.749 336.86 458.861 335.976 459.085 335.307C459.313 334.634 459.65 334.116 460.094 333.752C460.543 333.388 461.106 333.206 461.783 333.206C462.282 333.206 462.72 333.308 463.097 333.511C463.473 333.71 463.784 334 464.03 334.381C464.275 334.757 464.468 335.218 464.607 335.764C464.747 336.306 464.817 337.038 464.817 337.961C464.817 339.052 464.705 339.935 464.48 340.608C464.256 341.276 463.92 341.795 463.471 342.163C463.027 342.527 462.464 342.709 461.783 342.709C460.886 342.709 460.181 342.387 459.669 341.744C459.055 340.969 458.749 339.708 458.749 337.961ZM459.923 337.961C459.923 339.488 460.101 340.506 460.456 341.014C460.816 341.517 461.258 341.769 461.783 341.769C462.307 341.769 462.748 341.515 463.103 341.008C463.463 340.5 463.643 339.484 463.643 337.961C463.643 336.429 463.463 335.411 463.103 334.907C462.748 334.404 462.303 334.152 461.77 334.152C461.245 334.152 460.826 334.374 460.513 334.819C460.12 335.386 459.923 336.433 459.923 337.961Z" fill="#222222"/>
<path d="M514.044 341.452V342.55H507.894C507.885 342.275 507.93 342.01 508.027 341.757C508.183 341.338 508.433 340.925 508.776 340.519C509.123 340.112 509.622 339.643 510.274 339.11C511.285 338.28 511.969 337.624 512.324 337.142C512.68 336.655 512.857 336.196 512.857 335.764C512.857 335.312 512.694 334.931 512.369 334.622C512.047 334.309 511.626 334.152 511.105 334.152C510.555 334.152 510.115 334.317 509.785 334.647C509.455 334.977 509.288 335.434 509.284 336.018L508.109 335.898C508.19 335.022 508.492 334.355 509.017 333.898C509.542 333.437 510.246 333.206 511.131 333.206C512.024 333.206 512.73 333.454 513.251 333.949C513.771 334.444 514.032 335.058 514.032 335.79C514.032 336.162 513.956 336.528 513.803 336.888C513.651 337.248 513.397 337.626 513.042 338.024C512.69 338.422 512.104 338.968 511.283 339.662C510.598 340.237 510.158 340.629 509.963 340.836C509.768 341.039 509.607 341.244 509.48 341.452H514.044ZM515.276 337.961C515.276 336.86 515.388 335.976 515.612 335.307C515.841 334.634 516.177 334.116 516.622 333.752C517.07 333.388 517.633 333.206 518.31 333.206C518.809 333.206 519.247 333.308 519.624 333.511C520.001 333.71 520.312 334 520.557 334.381C520.803 334.757 520.995 335.218 521.135 335.764C521.274 336.306 521.344 337.038 521.344 337.961C521.344 339.052 521.232 339.935 521.008 340.608C520.784 341.276 520.447 341.795 519.999 342.163C519.554 342.527 518.991 342.709 518.31 342.709C517.413 342.709 516.708 342.387 516.196 341.744C515.583 340.969 515.276 339.708 515.276 337.961ZM516.45 337.961C516.45 339.488 516.628 340.506 516.983 341.014C517.343 341.517 517.785 341.769 518.31 341.769C518.835 341.769 519.275 341.515 519.63 341.008C519.99 340.5 520.17 339.484 520.17 337.961C520.17 336.429 519.99 335.411 519.63 334.907C519.275 334.404 518.831 334.152 518.297 334.152C517.773 334.152 517.354 334.374 517.041 334.819C516.647 335.386 516.45 336.433 516.45 337.961ZM526.816 342.55H525.673V335.269C525.398 335.532 525.036 335.794 524.588 336.056C524.144 336.319 523.744 336.515 523.388 336.647V335.542C524.027 335.242 524.586 334.878 525.064 334.45C525.542 334.023 525.881 333.608 526.08 333.206H526.816V342.55ZM529.749 337.961C529.749 336.86 529.861 335.976 530.085 335.307C530.313 334.634 530.65 334.116 531.094 333.752C531.543 333.388 532.106 333.206 532.783 333.206C533.282 333.206 533.72 333.308 534.097 333.511C534.473 333.71 534.784 334 535.03 334.381C535.275 334.757 535.468 335.218 535.607 335.764C535.747 336.306 535.817 337.038 535.817 337.961C535.817 339.052 535.705 339.935 535.48 340.608C535.256 341.276 534.92 341.795 534.471 342.163C534.027 342.527 533.464 342.709 532.783 342.709C531.886 342.709 531.181 342.387 530.669 341.744C530.055 340.969 529.749 339.708 529.749 337.961ZM530.923 337.961C530.923 339.488 531.101 340.506 531.456 341.014C531.816 341.517 532.258 341.769 532.783 341.769C533.307 341.769 533.748 341.515 534.103 341.008C534.463 340.5 534.643 339.484 534.643 337.961C534.643 336.429 534.463 335.411 534.103 334.907C533.748 334.404 533.303 334.152 532.77 334.152C532.245 334.152 531.826 334.374 531.513 334.819C531.12 335.386 530.923 336.433 530.923 337.961Z" fill="#222222"/>
<path d="M585.044 341.452V342.55H578.894C578.885 342.275 578.93 342.01 579.027 341.757C579.183 341.338 579.433 340.925 579.776 340.519C580.123 340.112 580.622 339.643 581.274 339.11C582.285 338.28 582.969 337.624 583.324 337.142C583.68 336.655 583.857 336.196 583.857 335.764C583.857 335.312 583.694 334.931 583.369 334.622C583.047 334.309 582.626 334.152 582.105 334.152C581.555 334.152 581.115 334.317 580.785 334.647C580.455 334.977 580.288 335.434 580.284 336.018L579.109 335.898C579.19 335.022 579.492 334.355 580.017 333.898C580.542 333.437 581.246 333.206 582.131 333.206C583.024 333.206 583.73 333.454 584.251 333.949C584.771 334.444 585.032 335.058 585.032 335.79C585.032 336.162 584.956 336.528 584.803 336.888C584.651 337.248 584.397 337.626 584.042 338.024C583.69 338.422 583.104 338.968 582.283 339.662C581.598 340.237 581.158 340.629 580.963 340.836C580.768 341.039 580.607 341.244 580.48 341.452H585.044ZM586.276 337.961C586.276 336.86 586.388 335.976 586.612 335.307C586.841 334.634 587.177 334.116 587.622 333.752C588.07 333.388 588.633 333.206 589.31 333.206C589.809 333.206 590.247 333.308 590.624 333.511C591.001 333.71 591.312 334 591.557 334.381C591.803 334.757 591.995 335.218 592.135 335.764C592.274 336.306 592.344 337.038 592.344 337.961C592.344 339.052 592.232 339.935 592.008 340.608C591.784 341.276 591.447 341.795 590.999 342.163C590.554 342.527 589.991 342.709 589.31 342.709C588.413 342.709 587.708 342.387 587.196 341.744C586.583 340.969 586.276 339.708 586.276 337.961ZM587.45 337.961C587.45 339.488 587.628 340.506 587.983 341.014C588.343 341.517 588.785 341.769 589.31 341.769C589.835 341.769 590.275 341.515 590.63 341.008C590.99 340.5 591.17 339.484 591.17 337.961C591.17 336.429 590.99 335.411 590.63 334.907C590.275 334.404 589.831 334.152 589.297 334.152C588.773 334.152 588.354 334.374 588.041 334.819C587.647 335.386 587.45 336.433 587.45 337.961ZM599.517 341.452V342.55H593.366C593.358 342.275 593.402 342.01 593.5 341.757C593.656 341.338 593.906 340.925 594.249 340.519C594.596 340.112 595.095 339.643 595.747 339.11C596.758 338.28 597.441 337.624 597.797 337.142C598.152 336.655 598.33 336.196 598.33 335.764C598.33 335.312 598.167 334.931 597.841 334.622C597.52 334.309 597.099 334.152 596.578 334.152C596.028 334.152 595.588 334.317 595.258 334.647C594.928 334.977 594.761 335.434 594.756 336.018L593.582 335.898C593.662 335.022 593.965 334.355 594.49 333.898C595.014 333.437 595.719 333.206 596.604 333.206C597.496 333.206 598.203 333.454 598.724 333.949C599.244 334.444 599.504 335.058 599.504 335.79C599.504 336.162 599.428 336.528 599.276 336.888C599.124 337.248 598.87 337.626 598.514 338.024C598.163 338.422 597.577 338.968 596.756 339.662C596.07 340.237 595.63 340.629 595.436 340.836C595.241 341.039 595.08 341.244 594.953 341.452H599.517ZM600.749 337.961C600.749 336.86 600.861 335.976 601.085 335.307C601.313 334.634 601.65 334.116 602.094 333.752C602.543 333.388 603.106 333.206 603.783 333.206C604.282 333.206 604.72 333.308 605.097 333.511C605.473 333.71 605.784 334 606.03 334.381C606.275 334.757 606.468 335.218 606.607 335.764C606.747 336.306 606.817 337.038 606.817 337.961C606.817 339.052 606.705 339.935 606.48 340.608C606.256 341.276 605.92 341.795 605.471 342.163C605.027 342.527 604.464 342.709 603.783 342.709C602.886 342.709 602.181 342.387 601.669 341.744C601.055 340.969 600.749 339.708 600.749 337.961ZM601.923 337.961C601.923 339.488 602.101 340.506 602.456 341.014C602.816 341.517 603.258 341.769 603.783 341.769C604.307 341.769 604.748 341.515 605.103 341.008C605.463 340.5 605.643 339.484 605.643 337.961C605.643 336.429 605.463 335.411 605.103 334.907C604.748 334.404 604.303 334.152 603.77 334.152C603.245 334.152 602.826 334.374 602.513 334.819C602.12 335.386 601.923 336.433 601.923 337.961Z" fill="#222222"/>
<path d="M110.54 322.961C110.54 321.86 110.652 320.976 110.876 320.307C111.104 319.634 111.441 319.116 111.885 318.752C112.334 318.388 112.897 318.206 113.574 318.206C114.073 318.206 114.511 318.308 114.888 318.511C115.264 318.71 115.575 319 115.821 319.381C116.066 319.757 116.259 320.218 116.398 320.764C116.538 321.306 116.608 322.038 116.608 322.961C116.608 324.052 116.496 324.935 116.271 325.608C116.047 326.276 115.711 326.795 115.262 327.163C114.818 327.527 114.255 327.709 113.574 327.709C112.677 327.709 111.972 327.387 111.46 326.744C110.846 325.969 110.54 324.708 110.54 322.961ZM111.714 322.961C111.714 324.488 111.892 325.506 112.247 326.014C112.607 326.517 113.049 326.769 113.574 326.769C114.098 326.769 114.539 326.515 114.894 326.008C115.254 325.5 115.434 324.484 115.434 322.961C115.434 321.429 115.254 320.411 114.894 319.907C114.539 319.404 114.094 319.152 113.561 319.152C113.036 319.152 112.617 319.374 112.304 319.819C111.911 320.386 111.714 321.433 111.714 322.961Z" fill="#444444"/>
<path d="M107.843 266.05H106.701V258.769C106.426 259.032 106.064 259.294 105.615 259.556C105.171 259.819 104.771 260.015 104.416 260.147V259.042C105.055 258.742 105.613 258.378 106.091 257.95C106.569 257.523 106.908 257.108 107.107 256.706H107.843V266.05ZM110.776 261.461C110.776 260.36 110.888 259.476 111.112 258.807C111.341 258.134 111.677 257.616 112.122 257.252C112.57 256.888 113.133 256.706 113.81 256.706C114.309 256.706 114.747 256.808 115.124 257.011C115.501 257.21 115.812 257.5 116.057 257.881C116.303 258.257 116.495 258.718 116.635 259.264C116.774 259.806 116.844 260.538 116.844 261.461C116.844 262.552 116.732 263.435 116.508 264.108C116.284 264.776 115.947 265.295 115.499 265.663C115.054 266.027 114.491 266.209 113.81 266.209C112.913 266.209 112.208 265.887 111.696 265.244C111.083 264.469 110.776 263.208 110.776 261.461ZM111.95 261.461C111.95 262.988 112.128 264.006 112.483 264.514C112.843 265.017 113.285 265.269 113.81 265.269C114.335 265.269 114.775 265.015 115.13 264.508C115.49 264 115.67 262.984 115.67 261.461C115.67 259.929 115.49 258.911 115.13 258.407C114.775 257.904 114.331 257.652 113.797 257.652C113.273 257.652 112.854 257.874 112.541 258.319C112.147 258.886 111.95 259.933 111.95 261.461Z" fill="#444444"/>
<path d="M109.544 203.452V204.55H103.394C103.385 204.275 103.43 204.01 103.527 203.757C103.683 203.338 103.933 202.925 104.276 202.519C104.623 202.112 105.122 201.643 105.774 201.11C106.785 200.28 107.469 199.624 107.824 199.142C108.18 198.655 108.357 198.196 108.357 197.764C108.357 197.312 108.194 196.931 107.869 196.622C107.547 196.309 107.126 196.152 106.605 196.152C106.055 196.152 105.615 196.317 105.285 196.647C104.955 196.977 104.788 197.434 104.784 198.018L103.609 197.898C103.69 197.022 103.992 196.355 104.517 195.898C105.042 195.437 105.746 195.206 106.631 195.206C107.524 195.206 108.23 195.454 108.751 195.949C109.271 196.444 109.532 197.058 109.532 197.79C109.532 198.162 109.456 198.528 109.303 198.888C109.151 199.248 108.897 199.626 108.542 200.024C108.19 200.422 107.604 200.968 106.783 201.662C106.098 202.237 105.658 202.629 105.463 202.836C105.268 203.039 105.107 203.244 104.98 203.452H109.544ZM110.776 199.961C110.776 198.86 110.888 197.976 111.112 197.307C111.341 196.634 111.677 196.116 112.122 195.752C112.57 195.388 113.133 195.206 113.81 195.206C114.309 195.206 114.747 195.308 115.124 195.511C115.501 195.71 115.812 196 116.057 196.381C116.303 196.757 116.495 197.218 116.635 197.764C116.774 198.306 116.844 199.038 116.844 199.961C116.844 201.052 116.732 201.935 116.508 202.608C116.284 203.276 115.947 203.795 115.499 204.163C115.054 204.527 114.491 204.709 113.81 204.709C112.913 204.709 112.208 204.387 111.696 203.744C111.083 202.969 110.776 201.708 110.776 199.961ZM111.95 199.961C111.95 201.488 112.128 202.506 112.483 203.014C112.843 203.517 113.285 203.769 113.81 203.769C114.335 203.769 114.775 203.515 115.13 203.008C115.49 202.5 115.67 201.484 115.67 199.961C115.67 198.429 115.49 197.411 115.13 196.907C114.775 196.404 114.331 196.152 113.797 196.152C113.273 196.152 112.854 196.374 112.541 196.819C112.147 197.386 111.95 198.433 111.95 199.961Z" fill="#444444"/>
<path d="M103.546 140.593L104.688 140.441C104.82 141.089 105.042 141.556 105.355 141.844C105.672 142.127 106.057 142.269 106.51 142.269C107.048 142.269 107.5 142.083 107.869 141.711C108.241 141.338 108.427 140.877 108.427 140.327C108.427 139.802 108.256 139.37 107.913 139.032C107.57 138.689 107.134 138.518 106.605 138.518C106.39 138.518 106.121 138.56 105.799 138.645L105.926 137.642C106.002 137.65 106.064 137.654 106.11 137.654C106.597 137.654 107.035 137.528 107.424 137.274C107.814 137.02 108.008 136.628 108.008 136.099C108.008 135.68 107.867 135.333 107.583 135.058C107.299 134.783 106.933 134.646 106.485 134.646C106.041 134.646 105.67 134.785 105.374 135.065C105.078 135.344 104.887 135.763 104.803 136.321L103.66 136.118C103.8 135.352 104.117 134.76 104.612 134.341C105.107 133.918 105.723 133.706 106.459 133.706C106.967 133.706 107.435 133.816 107.862 134.036C108.29 134.252 108.616 134.548 108.84 134.925C109.068 135.302 109.183 135.702 109.183 136.125C109.183 136.527 109.075 136.893 108.859 137.223C108.643 137.553 108.324 137.815 107.9 138.01C108.451 138.137 108.878 138.401 109.183 138.803C109.487 139.201 109.64 139.701 109.64 140.301C109.64 141.114 109.343 141.804 108.751 142.371C108.159 142.934 107.41 143.215 106.504 143.215C105.687 143.215 105.008 142.972 104.466 142.485C103.929 141.998 103.622 141.368 103.546 140.593ZM110.776 138.461C110.776 137.36 110.888 136.476 111.112 135.807C111.341 135.134 111.677 134.616 112.122 134.252C112.57 133.888 113.133 133.706 113.81 133.706C114.309 133.706 114.747 133.808 115.124 134.011C115.501 134.21 115.812 134.5 116.057 134.881C116.303 135.257 116.495 135.718 116.635 136.264C116.774 136.806 116.844 137.538 116.844 138.461C116.844 139.552 116.732 140.435 116.508 141.108C116.284 141.776 115.947 142.295 115.499 142.663C115.054 143.027 114.491 143.209 113.81 143.209C112.913 143.209 112.208 142.887 111.696 142.244C111.083 141.469 110.776 140.208 110.776 138.461ZM111.95 138.461C111.95 139.988 112.128 141.006 112.483 141.514C112.843 142.017 113.285 142.269 113.81 142.269C114.335 142.269 114.775 142.015 115.13 141.508C115.49 141 115.67 139.984 115.67 138.461C115.67 136.929 115.49 135.911 115.13 135.407C114.775 134.904 114.331 134.652 113.797 134.652C113.273 134.652 112.854 134.874 112.541 135.319C112.147 135.886 111.95 136.933 111.95 138.461Z" fill="#444444"/>
<path d="M107.202 81.55V79.322H103.165V78.2746L107.412 72.2443H108.345V78.2746H109.602V79.322H108.345V81.55H107.202ZM107.202 78.2746V74.0788L104.289 78.2746H107.202ZM110.776 76.9606C110.776 75.8604 110.888 74.9759 111.112 74.3073C111.341 73.6345 111.677 73.1161 112.122 72.7521C112.57 72.3882 113.133 72.2062 113.81 72.2062C114.309 72.2062 114.747 72.3078 115.124 72.5109C115.501 72.7098 115.812 72.9997 116.057 73.3806C116.303 73.7572 116.495 74.2184 116.635 74.7643C116.774 75.306 116.844 76.0381 116.844 76.9606C116.844 78.0524 116.732 78.9348 116.508 79.6076C116.284 80.2762 115.947 80.7946 115.499 81.1628C115.054 81.5267 114.491 81.7087 113.81 81.7087C112.913 81.7087 112.208 81.3871 111.696 80.7438C111.083 79.9694 110.776 78.7084 110.776 76.9606ZM111.95 76.9606C111.95 78.4883 112.128 79.506 112.483 80.0139C112.843 80.5174 113.285 80.7692 113.81 80.7692C114.335 80.7692 114.775 80.5153 115.13 80.0075C115.49 79.4997 115.67 78.4841 115.67 76.9606C115.67 75.4287 115.49 74.411 115.13 73.9074C114.775 73.4038 114.331 73.152 113.797 73.152C113.273 73.152 112.854 73.3742 112.541 73.8185C112.147 74.3856 111.95 75.433 111.95 76.9606Z" fill="#444444"/>
<path d="M362.74 376.55L368.015 367.244H369.481L371.017 376.55H369.811L369.36 373.871H365.596L364.104 376.55H362.74ZM366.129 372.913H369.208L368.846 370.577C368.707 369.65 368.62 368.878 368.586 368.26C368.374 368.793 368.065 369.426 367.659 370.158L366.129 372.913ZM367.767 366.483C367.767 366.161 367.879 365.888 368.104 365.664C368.332 365.44 368.605 365.327 368.922 365.327C369.244 365.327 369.517 365.442 369.741 365.67C369.965 365.894 370.078 366.165 370.078 366.483C370.078 366.804 369.963 367.077 369.735 367.302C369.511 367.526 369.24 367.638 368.922 367.638C368.605 367.638 368.332 367.526 368.104 367.302C367.879 367.077 367.767 366.804 367.767 366.483ZM368.243 366.483C368.243 366.673 368.309 366.836 368.44 366.971C368.575 367.103 368.736 367.168 368.922 367.168C369.113 367.168 369.274 367.103 369.405 366.971C369.54 366.836 369.608 366.673 369.608 366.483C369.608 366.296 369.54 366.138 369.405 366.007C369.274 365.871 369.113 365.803 368.922 365.803C368.736 365.803 368.575 365.871 368.44 366.007C368.309 366.138 368.243 366.296 368.243 366.483ZM372.103 376.55L373.512 369.809H374.527L374.242 371.186C374.589 370.666 374.927 370.281 375.257 370.031C375.592 369.781 375.932 369.656 376.279 369.656C376.508 369.656 376.789 369.739 377.124 369.904L376.654 370.97C376.455 370.827 376.237 370.755 376 370.755C375.598 370.755 375.185 370.979 374.762 371.427C374.339 371.876 374.007 372.682 373.766 373.846L373.194 376.55H372.103ZM376.54 374.246L377.688 374.176C377.688 374.506 377.739 374.788 377.841 375.02C377.942 375.253 378.129 375.443 378.399 375.592C378.674 375.74 378.994 375.814 379.358 375.814C379.866 375.814 380.247 375.712 380.5 375.509C380.754 375.306 380.881 375.067 380.881 374.792C380.881 374.593 380.805 374.405 380.653 374.227C380.496 374.049 380.113 373.831 379.504 373.573C378.899 373.311 378.512 373.127 378.342 373.021C378.059 372.847 377.845 372.644 377.701 372.411C377.557 372.174 377.485 371.904 377.485 371.599C377.485 371.066 377.697 370.609 378.12 370.228C378.543 369.847 379.136 369.656 379.897 369.656C380.744 369.656 381.387 369.853 381.827 370.247C382.271 370.636 382.502 371.15 382.519 371.789L381.396 371.865C381.379 371.459 381.235 371.138 380.964 370.901C380.693 370.664 380.31 370.545 379.815 370.545C379.417 370.545 379.108 370.636 378.888 370.818C378.668 371 378.558 371.197 378.558 371.408C378.558 371.62 378.653 371.806 378.844 371.967C378.971 372.077 379.299 372.246 379.828 372.475C380.708 372.856 381.262 373.156 381.491 373.376C381.855 373.727 382.037 374.155 382.037 374.658C382.037 374.993 381.933 375.321 381.726 375.642C381.522 375.964 381.209 376.222 380.786 376.417C380.367 376.607 379.872 376.702 379.301 376.702C378.522 376.702 377.86 376.51 377.314 376.125C376.768 375.74 376.51 375.113 376.54 374.246ZM385.617 375.617L385.426 376.556C385.151 376.628 384.885 376.664 384.626 376.664C384.169 376.664 383.806 376.552 383.535 376.328C383.332 376.159 383.23 375.928 383.23 375.636C383.23 375.488 383.285 375.147 383.395 374.614L384.214 370.698H383.306L383.49 369.809H384.398L384.747 368.152L386.061 367.359L385.547 369.809H386.677L386.486 370.698H385.363L384.582 374.424C384.485 374.898 384.436 375.181 384.436 375.274C384.436 375.41 384.474 375.513 384.55 375.585C384.631 375.657 384.76 375.693 384.938 375.693C385.191 375.693 385.418 375.668 385.617 375.617ZM391.095 375.712C390.697 376.055 390.314 376.307 389.946 376.468C389.578 376.624 389.184 376.702 388.765 376.702C388.143 376.702 387.642 376.52 387.261 376.156C386.88 375.788 386.689 375.319 386.689 374.747C386.689 374.371 386.774 374.038 386.943 373.751C387.117 373.459 387.345 373.226 387.629 373.052C387.912 372.875 388.259 372.748 388.67 372.672C388.928 372.621 389.417 372.581 390.136 372.551C390.86 372.521 391.378 372.445 391.691 372.323C391.78 372.009 391.825 371.749 391.825 371.542C391.825 371.275 391.727 371.066 391.533 370.913C391.266 370.702 390.877 370.596 390.365 370.596C389.882 370.596 389.487 370.704 389.178 370.92C388.873 371.131 388.651 371.434 388.511 371.827L387.35 371.726C387.587 371.057 387.961 370.545 388.473 370.19C388.989 369.834 389.639 369.656 390.422 369.656C391.256 369.656 391.916 369.855 392.402 370.253C392.775 370.549 392.961 370.934 392.961 371.408C392.961 371.768 392.908 372.185 392.802 372.659L392.428 374.335C392.309 374.868 392.25 375.302 392.25 375.636C392.25 375.848 392.297 376.152 392.39 376.55H391.228C391.165 376.33 391.12 376.051 391.095 375.712ZM391.52 373.135C391.359 373.198 391.186 373.247 391 373.281C390.818 373.315 390.511 373.351 390.079 373.389C389.41 373.448 388.939 373.524 388.664 373.617C388.389 373.706 388.181 373.85 388.042 374.049C387.902 374.248 387.832 374.468 387.832 374.709C387.832 375.031 387.942 375.295 388.162 375.503C388.386 375.71 388.704 375.814 389.114 375.814C389.495 375.814 389.861 375.714 390.212 375.515C390.564 375.312 390.841 375.031 391.044 374.671C391.247 374.311 391.406 373.799 391.52 373.135ZM393.697 376.55L395.64 367.244H396.789L394.846 376.55H393.697Z" fill="#222222"/>
<path d="M55.55 216.76L46.2443 211.485V210.019L55.55 208.483V209.689L52.8713 210.14V213.904L55.55 215.396V216.76ZM51.9128 213.371V210.292L49.5768 210.654C48.6501 210.793 47.8778 210.88 47.2599 210.914C47.7932 211.126 48.4258 211.435 49.1579 211.841L51.9128 213.371ZM55.55 207.486L46.2443 205.544V204.395L55.55 206.337V207.486ZM54.5724 199.958C55.3257 200.614 55.7023 201.299 55.7023 202.015C55.7023 202.654 55.4675 203.187 54.9977 203.614C54.5238 204.037 53.8382 204.249 52.9411 204.249C52.1201 204.249 51.3711 204.082 50.694 203.748C50.0127 203.409 49.5028 202.988 49.1642 202.484C48.8257 201.977 48.6564 201.469 48.6564 200.961C48.6564 200.123 49.0606 199.49 49.8688 199.063L46.2443 198.301V197.159L55.55 199.101V200.161L54.5724 199.958ZM52.7253 203.106C53.195 203.106 53.5653 203.06 53.8361 202.967C54.107 202.874 54.3334 202.715 54.5153 202.491C54.6931 202.266 54.7819 201.998 54.7819 201.685C54.7819 201.164 54.5111 200.692 53.9694 200.269C53.25 199.702 52.3613 199.418 51.3034 199.418C50.7702 199.418 50.3534 199.558 50.0529 199.837C49.7525 200.117 49.6022 200.468 49.6022 200.891C49.6022 201.166 49.6636 201.418 49.7863 201.646C49.909 201.871 50.1185 202.095 50.4147 202.319C50.7067 202.539 51.0791 202.726 51.5319 202.878C51.9847 203.03 52.3825 203.106 52.7253 203.106ZM53.2585 192.315L53.3727 191.198C53.9271 191.359 54.454 191.729 54.9533 192.309C55.4527 192.885 55.7023 193.572 55.7023 194.372C55.7023 194.871 55.5881 195.331 55.3596 195.75C55.1268 196.164 54.7904 196.482 54.3503 196.702C53.9102 196.917 53.4087 197.025 52.8459 197.025C52.1096 197.025 51.3965 196.856 50.7067 196.518C50.0127 196.175 49.4986 195.733 49.1642 195.191C48.8257 194.649 48.6564 194.063 48.6564 193.433C48.6564 192.629 48.9061 191.987 49.4055 191.509C49.9048 191.027 50.5861 190.786 51.4494 190.786C51.7795 190.786 52.118 190.815 52.465 190.875V195.838C52.5962 195.855 52.7147 195.864 52.8205 195.864C53.451 195.864 53.9335 195.72 54.2678 195.432C54.5978 195.14 54.7629 194.785 54.7629 194.366C54.7629 193.972 54.6338 193.585 54.3757 193.204C54.1175 192.823 53.7451 192.527 53.2585 192.315ZM51.5891 195.654V191.871C51.4706 191.867 51.3859 191.865 51.3351 191.865C50.7596 191.865 50.3195 192.009 50.0148 192.296C49.7059 192.584 49.5515 192.954 49.5515 193.407C49.5515 193.898 49.7207 194.347 50.0593 194.753C50.3978 195.155 50.9077 195.455 51.5891 195.654ZM55.55 190.03L48.8088 188.621V187.605L50.1862 187.891C49.6657 187.544 49.2806 187.206 49.0309 186.875C48.7813 186.541 48.6564 186.201 48.6564 185.854C48.6564 185.625 48.739 185.344 48.904 185.009L49.9704 185.479C49.8265 185.678 49.7546 185.896 49.7546 186.133C49.7546 186.535 49.9789 186.947 50.4274 187.371C50.876 187.794 51.6821 188.126 52.8459 188.367L55.55 188.938V190.03Z" fill="#222222"/>
</g>
<defs>
<clipPath id="clip0_1_115">
<rect width="760" height="400" fill="white" transform="translate(0 0.5)"/>
</clipPath>
</defs>
</svg>
